<svg xmlns="http://www.w3.org/2000/svg" width="960" height="510" viewBox="0 0 960 510" role="img" aria-labelledby="title desc">
<title id="title">Normal compression changes coordinate area, not Liouville mass</title>
<desc id="desc">In normalized coordinates the rectangle 0 less than x less than 1 and absolute y less than 1 maps by z equals x y to the triangle absolute z less than x. Its Euclidean area changes from 2 epsilon cubed to epsilon to the fifth. The density d r d kappa divided by r retains mass 2 epsilon cubed. The normal boundary segment collapses to the vertex.</desc>
<rect width="960" height="510" fill="#fff"/>
<g font-family="Arial,sans-serif" fill="#263c48">
<text x="28" y="36" font-size="23" font-weight="700">Normal compression: κ = rρ</text>
<text x="28" y="65" font-size="16">GF30, GFA1 and Exercise 4 · independently normalized axes</text>
<text x="60" y="110" font-size="19" font-weight="700">Ordinary normal coordinates</text>
<text x="535" y="110" font-size="19" font-weight="700">Compressed normal coordinates</text>
<path d="M100 155 H400 V375 H100 Z" fill="#d9edf3" stroke="#236985" stroke-width="2"/>
<path d="M570 265 L870 155 V375 Z" fill="#d9edf3" stroke="#236985" stroke-width="2"/>
<g stroke="#859ca8" stroke-width="1.4" fill="none"><path d="M82 265 H420 M100 390 V138 M552 265 H891 M570 390 V138"/></g>
<g stroke="#75a5b8" stroke-width="1.5" stroke-dasharray="5 4"><path d="M250 155 V375 M720 210 V320"/></g>
<path d="M100 155 V375" stroke="#bd4d3e" stroke-width="4"/><circle cx="570" cy="265" r="4.5" fill="#bd4d3e"/>
<path d="M447 265 H509 L500 259 M509 265 L500 271" fill="none" stroke="#263c48" stroke-width="2"/>
<text x="450" y="245" font-size="17">z = xy</text>
<text x="66" y="153" font-size="16">1</text><text x="59" y="381" font-size="16">−1</text>
<text x="536" y="153" font-size="16">1</text><text x="529" y="381" font-size="16">−1</text>
<text x="81" y="287" font-size="16">0</text><text x="398" y="288" font-size="16">1</text>
<text x="549" y="287" font-size="16">0</text><text x="868" y="288" font-size="16">1</text>
<text x="115" y="143" font-size="16">y = ρ/ε</text><text x="586" y="143" font-size="16">z = κ/ε³</text>
<text x="278" y="404" font-size="16">x = r/ε²</text><text x="748" y="404" font-size="16">x = r/ε²</text>
<text x="60" y="438" font-size="18">Euclidean area: 2ε³</text>
<text x="535" y="438" font-size="18">Euclidean area: ε⁵</text>
<text x="535" y="468" font-size="18" font-weight="700">Mass with dr dκ/r: 2ε³</text>
<text x="60" y="489" font-size="15" fill="#a44135">Boundary segment → vertex; r = 0 has measure zero.</text>
</g></svg>