<?xml version="1.0" encoding="utf-8" standalone="no"?>
<!DOCTYPE svg PUBLIC "-//W3C//DTD SVG 1.1//EN"
  "http://www.w3.org/Graphics/SVG/1.1/DTD/svg11.dtd">
<svg xmlns:xlink="http://www.w3.org/1999/xlink" width="792pt" height="417.6pt" viewBox="0 0 792 417.6" xmlns="http://www.w3.org/2000/svg" version="1.1">
 <metadata>
  <rdf:RDF xmlns:dc="http://purl.org/dc/elements/1.1/" xmlns:cc="http://creativecommons.org/ns#" xmlns:rdf="http://www.w3.org/1999/02/22-rdf-syntax-ns#">
   <cc:Work>
    <dc:type rdf:resource="http://purl.org/dc/dcmitype/StillImage"/>
    <dc:date>2026-10-09T23:34:51.344988</dc:date>
    <dc:format>image/svg+xml</dc:format>
    <dc:creator>
     <cc:Agent>
      <dc:title>Matplotlib v3.10.9, https://matplotlib.org/</dc:title>
     </cc:Agent>
    </dc:creator>
   </cc:Work>
  </rdf:RDF>
 </metadata>
 <defs>
  <style type="text/css">*{stroke-linejoin: round; stroke-linecap: butt}</style>
 </defs>
 <g id="figure_1">
  <g id="patch_1">
   <path d="M 0 417.6 
L 792 417.6 
L 792 0 
L 0 0 
z
" style="fill: #ffffff"/>
  </g>
  <g id="axes_1">
   <g id="patch_2">
    <path d="M 58.292428 340.547885 
L 776.753666 340.547885 
L 776.753666 19.030177 
L 58.292428 19.030177 
z
" style="fill: #ffffff"/>
   </g>
   <g id="patch_3">
    <path d="M 58.292428 340.547885 
L 237.907737 340.547885 
L 237.907737 19.030177 
L 58.292428 19.030177 
z
" clip-path="url(#p8536d5d539)" style="fill: #dbeafe; opacity: 0.85; stroke: #dbeafe; stroke-linejoin: miter"/>
   </g>
   <g id="matplotlib.axis_1">
    <g id="xtick_1">
     <g id="line2d_1">
      <path d="M 58.292428 340.547885 
L 58.292428 19.030177 
" clip-path="url(#p8536d5d539)" style="fill: none; stroke: #b0b0b0; stroke-opacity: 0.2; stroke-width: 0.8; stroke-linecap: square"/>
     </g>
     <g id="line2d_2">
      <defs>
       <path id="m10df2055d5" d="M 0 0 
L 0 3.5 
" style="stroke: #000000; stroke-width: 0.8"/>
      </defs>
      <g>
       <use xlink:href="#m10df2055d5" x="58.292428" y="340.547885" style="stroke: #000000; stroke-width: 0.8"/>
      </g>
     </g>
     <g id="text_1">
      <!-- 0.00 -->
      <g transform="translate(46.046334 355.906166) scale(0.11 -0.11)">
       <defs>
        <path id="DejaVuSans-30" d="M 2034 4250 
Q 1547 4250 1301 3770 
Q 1056 3291 1056 2328 
Q 1056 1369 1301 889 
Q 1547 409 2034 409 
Q 2525 409 2770 889 
Q 3016 1369 3016 2328 
Q 3016 3291 2770 3770 
Q 2525 4250 2034 4250 
z
M 2034 4750 
Q 2819 4750 3233 4129 
Q 3647 3509 3647 2328 
Q 3647 1150 3233 529 
Q 2819 -91 2034 -91 
Q 1250 -91 836 529 
Q 422 1150 422 2328 
Q 422 3509 836 4129 
Q 1250 4750 2034 4750 
z
" transform="scale(0.015625)"/>
        <path id="DejaVuSans-2e" d="M 684 794 
L 1344 794 
L 1344 0 
L 684 0 
L 684 794 
z
" transform="scale(0.015625)"/>
       </defs>
       <use xlink:href="#DejaVuSans-30"/>
       <use xlink:href="#DejaVuSans-2e" transform="translate(63.623047 0)"/>
       <use xlink:href="#DejaVuSans-30" transform="translate(95.410156 0)"/>
       <use xlink:href="#DejaVuSans-30" transform="translate(159.033203 0)"/>
      </g>
     </g>
    </g>
    <g id="xtick_2">
     <g id="line2d_3">
      <path d="M 148.100082 340.547885 
L 148.100082 19.030177 
" clip-path="url(#p8536d5d539)" style="fill: none; stroke: #b0b0b0; stroke-opacity: 0.2; stroke-width: 0.8; stroke-linecap: square"/>
     </g>
     <g id="line2d_4">
      <g>
       <use xlink:href="#m10df2055d5" x="148.100082" y="340.547885" style="stroke: #000000; stroke-width: 0.8"/>
      </g>
     </g>
     <g id="text_2">
      <!-- 0.25 -->
      <g transform="translate(135.853989 355.906166) scale(0.11 -0.11)">
       <defs>
        <path id="DejaVuSans-32" d="M 1228 531 
L 3431 531 
L 3431 0 
L 469 0 
L 469 531 
Q 828 903 1448 1529 
Q 2069 2156 2228 2338 
Q 2531 2678 2651 2914 
Q 2772 3150 2772 3378 
Q 2772 3750 2511 3984 
Q 2250 4219 1831 4219 
Q 1534 4219 1204 4116 
Q 875 4013 500 3803 
L 500 4441 
Q 881 4594 1212 4672 
Q 1544 4750 1819 4750 
Q 2544 4750 2975 4387 
Q 3406 4025 3406 3419 
Q 3406 3131 3298 2873 
Q 3191 2616 2906 2266 
Q 2828 2175 2409 1742 
Q 1991 1309 1228 531 
z
" transform="scale(0.015625)"/>
        <path id="DejaVuSans-35" d="M 691 4666 
L 3169 4666 
L 3169 4134 
L 1269 4134 
L 1269 2991 
Q 1406 3038 1543 3061 
Q 1681 3084 1819 3084 
Q 2600 3084 3056 2656 
Q 3513 2228 3513 1497 
Q 3513 744 3044 326 
Q 2575 -91 1722 -91 
Q 1428 -91 1123 -41 
Q 819 9 494 109 
L 494 744 
Q 775 591 1075 516 
Q 1375 441 1709 441 
Q 2250 441 2565 725 
Q 2881 1009 2881 1497 
Q 2881 1984 2565 2268 
Q 2250 2553 1709 2553 
Q 1456 2553 1204 2497 
Q 953 2441 691 2322 
L 691 4666 
z
" transform="scale(0.015625)"/>
       </defs>
       <use xlink:href="#DejaVuSans-30"/>
       <use xlink:href="#DejaVuSans-2e" transform="translate(63.623047 0)"/>
       <use xlink:href="#DejaVuSans-32" transform="translate(95.410156 0)"/>
       <use xlink:href="#DejaVuSans-35" transform="translate(159.033203 0)"/>
      </g>
     </g>
    </g>
    <g id="xtick_3">
     <g id="line2d_5">
      <path d="M 237.907737 340.547885 
L 237.907737 19.030177 
" clip-path="url(#p8536d5d539)" style="fill: none; stroke: #b0b0b0; stroke-opacity: 0.2; stroke-width: 0.8; stroke-linecap: square"/>
     </g>
     <g id="line2d_6">
      <g>
       <use xlink:href="#m10df2055d5" x="237.907737" y="340.547885" style="stroke: #000000; stroke-width: 0.8"/>
      </g>
     </g>
     <g id="text_3">
      <!-- 0.50 -->
      <g transform="translate(225.661643 355.906166) scale(0.11 -0.11)">
       <use xlink:href="#DejaVuSans-30"/>
       <use xlink:href="#DejaVuSans-2e" transform="translate(63.623047 0)"/>
       <use xlink:href="#DejaVuSans-35" transform="translate(95.410156 0)"/>
       <use xlink:href="#DejaVuSans-30" transform="translate(159.033203 0)"/>
      </g>
     </g>
    </g>
    <g id="xtick_4">
     <g id="line2d_7">
      <path d="M 327.715392 340.547885 
L 327.715392 19.030177 
" clip-path="url(#p8536d5d539)" style="fill: none; stroke: #b0b0b0; stroke-opacity: 0.2; stroke-width: 0.8; stroke-linecap: square"/>
     </g>
     <g id="line2d_8">
      <g>
       <use xlink:href="#m10df2055d5" x="327.715392" y="340.547885" style="stroke: #000000; stroke-width: 0.8"/>
      </g>
     </g>
     <g id="text_4">
      <!-- 0.75 -->
      <g transform="translate(315.469298 355.906166) scale(0.11 -0.11)">
       <defs>
        <path id="DejaVuSans-37" d="M 525 4666 
L 3525 4666 
L 3525 4397 
L 1831 0 
L 1172 0 
L 2766 4134 
L 525 4134 
L 525 4666 
z
" transform="scale(0.015625)"/>
       </defs>
       <use xlink:href="#DejaVuSans-30"/>
       <use xlink:href="#DejaVuSans-2e" transform="translate(63.623047 0)"/>
       <use xlink:href="#DejaVuSans-37" transform="translate(95.410156 0)"/>
       <use xlink:href="#DejaVuSans-35" transform="translate(159.033203 0)"/>
      </g>
     </g>
    </g>
    <g id="xtick_5">
     <g id="line2d_9">
      <path d="M 417.523047 340.547885 
L 417.523047 19.030177 
" clip-path="url(#p8536d5d539)" style="fill: none; stroke: #b0b0b0; stroke-opacity: 0.2; stroke-width: 0.8; stroke-linecap: square"/>
     </g>
     <g id="line2d_10">
      <g>
       <use xlink:href="#m10df2055d5" x="417.523047" y="340.547885" style="stroke: #000000; stroke-width: 0.8"/>
      </g>
     </g>
     <g id="text_5">
      <!-- 1.00 -->
      <g transform="translate(405.276953 355.906166) scale(0.11 -0.11)">
       <defs>
        <path id="DejaVuSans-31" d="M 794 531 
L 1825 531 
L 1825 4091 
L 703 3866 
L 703 4441 
L 1819 4666 
L 2450 4666 
L 2450 531 
L 3481 531 
L 3481 0 
L 794 0 
L 794 531 
z
" transform="scale(0.015625)"/>
       </defs>
       <use xlink:href="#DejaVuSans-31"/>
       <use xlink:href="#DejaVuSans-2e" transform="translate(63.623047 0)"/>
       <use xlink:href="#DejaVuSans-30" transform="translate(95.410156 0)"/>
       <use xlink:href="#DejaVuSans-30" transform="translate(159.033203 0)"/>
      </g>
     </g>
    </g>
    <g id="xtick_6">
     <g id="line2d_11">
      <path d="M 507.330702 340.547885 
L 507.330702 19.030177 
" clip-path="url(#p8536d5d539)" style="fill: none; stroke: #b0b0b0; stroke-opacity: 0.2; stroke-width: 0.8; stroke-linecap: square"/>
     </g>
     <g id="line2d_12">
      <g>
       <use xlink:href="#m10df2055d5" x="507.330702" y="340.547885" style="stroke: #000000; stroke-width: 0.8"/>
      </g>
     </g>
     <g id="text_6">
      <!-- 1.25 -->
      <g transform="translate(495.084608 355.906166) scale(0.11 -0.11)">
       <use xlink:href="#DejaVuSans-31"/>
       <use xlink:href="#DejaVuSans-2e" transform="translate(63.623047 0)"/>
       <use xlink:href="#DejaVuSans-32" transform="translate(95.410156 0)"/>
       <use xlink:href="#DejaVuSans-35" transform="translate(159.033203 0)"/>
      </g>
     </g>
    </g>
    <g id="xtick_7">
     <g id="line2d_13">
      <path d="M 597.138357 340.547885 
L 597.138357 19.030177 
" clip-path="url(#p8536d5d539)" style="fill: none; stroke: #b0b0b0; stroke-opacity: 0.2; stroke-width: 0.8; stroke-linecap: square"/>
     </g>
     <g id="line2d_14">
      <g>
       <use xlink:href="#m10df2055d5" x="597.138357" y="340.547885" style="stroke: #000000; stroke-width: 0.8"/>
      </g>
     </g>
     <g id="text_7">
      <!-- 1.50 -->
      <g transform="translate(584.892263 355.906166) scale(0.11 -0.11)">
       <use xlink:href="#DejaVuSans-31"/>
       <use xlink:href="#DejaVuSans-2e" transform="translate(63.623047 0)"/>
       <use xlink:href="#DejaVuSans-35" transform="translate(95.410156 0)"/>
       <use xlink:href="#DejaVuSans-30" transform="translate(159.033203 0)"/>
      </g>
     </g>
    </g>
    <g id="xtick_8">
     <g id="line2d_15">
      <path d="M 686.946011 340.547885 
L 686.946011 19.030177 
" clip-path="url(#p8536d5d539)" style="fill: none; stroke: #b0b0b0; stroke-opacity: 0.2; stroke-width: 0.8; stroke-linecap: square"/>
     </g>
     <g id="line2d_16">
      <g>
       <use xlink:href="#m10df2055d5" x="686.946011" y="340.547885" style="stroke: #000000; stroke-width: 0.8"/>
      </g>
     </g>
     <g id="text_8">
      <!-- 1.75 -->
      <g transform="translate(674.699918 355.906166) scale(0.11 -0.11)">
       <use xlink:href="#DejaVuSans-31"/>
       <use xlink:href="#DejaVuSans-2e" transform="translate(63.623047 0)"/>
       <use xlink:href="#DejaVuSans-37" transform="translate(95.410156 0)"/>
       <use xlink:href="#DejaVuSans-35" transform="translate(159.033203 0)"/>
      </g>
     </g>
    </g>
    <g id="xtick_9">
     <g id="line2d_17">
      <path d="M 776.753666 340.547885 
L 776.753666 19.030177 
" clip-path="url(#p8536d5d539)" style="fill: none; stroke: #b0b0b0; stroke-opacity: 0.2; stroke-width: 0.8; stroke-linecap: square"/>
     </g>
     <g id="line2d_18">
      <g>
       <use xlink:href="#m10df2055d5" x="776.753666" y="340.547885" style="stroke: #000000; stroke-width: 0.8"/>
      </g>
     </g>
     <g id="text_9">
      <!-- 2.00 -->
      <g transform="translate(764.507572 355.906166) scale(0.11 -0.11)">
       <use xlink:href="#DejaVuSans-32"/>
       <use xlink:href="#DejaVuSans-2e" transform="translate(63.623047 0)"/>
       <use xlink:href="#DejaVuSans-30" transform="translate(95.410156 0)"/>
       <use xlink:href="#DejaVuSans-30" transform="translate(159.033203 0)"/>
      </g>
     </g>
    </g>
    <g id="text_10">
     <!-- Original time t -->
     <g transform="translate(377.923047 370.552104) scale(0.11 -0.11)">
      <defs>
       <path id="DejaVuSans-4f" d="M 2522 4238 
Q 1834 4238 1429 3725 
Q 1025 3213 1025 2328 
Q 1025 1447 1429 934 
Q 1834 422 2522 422 
Q 3209 422 3611 934 
Q 4013 1447 4013 2328 
Q 4013 3213 3611 3725 
Q 3209 4238 2522 4238 
z
M 2522 4750 
Q 3503 4750 4090 4092 
Q 4678 3434 4678 2328 
Q 4678 1225 4090 567 
Q 3503 -91 2522 -91 
Q 1538 -91 948 565 
Q 359 1222 359 2328 
Q 359 3434 948 4092 
Q 1538 4750 2522 4750 
z
" transform="scale(0.015625)"/>
       <path id="DejaVuSans-72" d="M 2631 2963 
Q 2534 3019 2420 3045 
Q 2306 3072 2169 3072 
Q 1681 3072 1420 2755 
Q 1159 2438 1159 1844 
L 1159 0 
L 581 0 
L 581 3500 
L 1159 3500 
L 1159 2956 
Q 1341 3275 1631 3429 
Q 1922 3584 2338 3584 
Q 2397 3584 2469 3576 
Q 2541 3569 2628 3553 
L 2631 2963 
z
" transform="scale(0.015625)"/>
       <path id="DejaVuSans-69" d="M 603 3500 
L 1178 3500 
L 1178 0 
L 603 0 
L 603 3500 
z
M 603 4863 
L 1178 4863 
L 1178 4134 
L 603 4134 
L 603 4863 
z
" transform="scale(0.015625)"/>
       <path id="DejaVuSans-67" d="M 2906 1791 
Q 2906 2416 2648 2759 
Q 2391 3103 1925 3103 
Q 1463 3103 1205 2759 
Q 947 2416 947 1791 
Q 947 1169 1205 825 
Q 1463 481 1925 481 
Q 2391 481 2648 825 
Q 2906 1169 2906 1791 
z
M 3481 434 
Q 3481 -459 3084 -895 
Q 2688 -1331 1869 -1331 
Q 1566 -1331 1297 -1286 
Q 1028 -1241 775 -1147 
L 775 -588 
Q 1028 -725 1275 -790 
Q 1522 -856 1778 -856 
Q 2344 -856 2625 -561 
Q 2906 -266 2906 331 
L 2906 616 
Q 2728 306 2450 153 
Q 2172 0 1784 0 
Q 1141 0 747 490 
Q 353 981 353 1791 
Q 353 2603 747 3093 
Q 1141 3584 1784 3584 
Q 2172 3584 2450 3431 
Q 2728 3278 2906 2969 
L 2906 3500 
L 3481 3500 
L 3481 434 
z
" transform="scale(0.015625)"/>
       <path id="DejaVuSans-6e" d="M 3513 2113 
L 3513 0 
L 2938 0 
L 2938 2094 
Q 2938 2591 2744 2837 
Q 2550 3084 2163 3084 
Q 1697 3084 1428 2787 
Q 1159 2491 1159 1978 
L 1159 0 
L 581 0 
L 581 3500 
L 1159 3500 
L 1159 2956 
Q 1366 3272 1645 3428 
Q 1925 3584 2291 3584 
Q 2894 3584 3203 3211 
Q 3513 2838 3513 2113 
z
" transform="scale(0.015625)"/>
       <path id="DejaVuSans-61" d="M 2194 1759 
Q 1497 1759 1228 1600 
Q 959 1441 959 1056 
Q 959 750 1161 570 
Q 1363 391 1709 391 
Q 2188 391 2477 730 
Q 2766 1069 2766 1631 
L 2766 1759 
L 2194 1759 
z
M 3341 1997 
L 3341 0 
L 2766 0 
L 2766 531 
Q 2569 213 2275 61 
Q 1981 -91 1556 -91 
Q 1019 -91 701 211 
Q 384 513 384 1019 
Q 384 1609 779 1909 
Q 1175 2209 1959 2209 
L 2766 2209 
L 2766 2266 
Q 2766 2663 2505 2880 
Q 2244 3097 1772 3097 
Q 1472 3097 1187 3025 
Q 903 2953 641 2809 
L 641 3341 
Q 956 3463 1253 3523 
Q 1550 3584 1831 3584 
Q 2591 3584 2966 3190 
Q 3341 2797 3341 1997 
z
" transform="scale(0.015625)"/>
       <path id="DejaVuSans-6c" d="M 603 4863 
L 1178 4863 
L 1178 0 
L 603 0 
L 603 4863 
z
" transform="scale(0.015625)"/>
       <path id="DejaVuSans-20" transform="scale(0.015625)"/>
       <path id="DejaVuSans-74" d="M 1172 4494 
L 1172 3500 
L 2356 3500 
L 2356 3053 
L 1172 3053 
L 1172 1153 
Q 1172 725 1289 603 
Q 1406 481 1766 481 
L 2356 481 
L 2356 0 
L 1766 0 
Q 1100 0 847 248 
Q 594 497 594 1153 
L 594 3053 
L 172 3053 
L 172 3500 
L 594 3500 
L 594 4494 
L 1172 4494 
z
" transform="scale(0.015625)"/>
       <path id="DejaVuSans-6d" d="M 3328 2828 
Q 3544 3216 3844 3400 
Q 4144 3584 4550 3584 
Q 5097 3584 5394 3201 
Q 5691 2819 5691 2113 
L 5691 0 
L 5113 0 
L 5113 2094 
Q 5113 2597 4934 2840 
Q 4756 3084 4391 3084 
Q 3944 3084 3684 2787 
Q 3425 2491 3425 1978 
L 3425 0 
L 2847 0 
L 2847 2094 
Q 2847 2600 2669 2842 
Q 2491 3084 2119 3084 
Q 1678 3084 1418 2786 
Q 1159 2488 1159 1978 
L 1159 0 
L 581 0 
L 581 3500 
L 1159 3500 
L 1159 2956 
Q 1356 3278 1631 3431 
Q 1906 3584 2284 3584 
Q 2666 3584 2933 3390 
Q 3200 3197 3328 2828 
z
" transform="scale(0.015625)"/>
       <path id="DejaVuSans-65" d="M 3597 1894 
L 3597 1613 
L 953 1613 
Q 991 1019 1311 708 
Q 1631 397 2203 397 
Q 2534 397 2845 478 
Q 3156 559 3463 722 
L 3463 178 
Q 3153 47 2828 -22 
Q 2503 -91 2169 -91 
Q 1331 -91 842 396 
Q 353 884 353 1716 
Q 353 2575 817 3079 
Q 1281 3584 2069 3584 
Q 2775 3584 3186 3129 
Q 3597 2675 3597 1894 
z
M 3022 2063 
Q 3016 2534 2758 2815 
Q 2500 3097 2075 3097 
Q 1594 3097 1305 2825 
Q 1016 2553 972 2059 
L 3022 2063 
z
" transform="scale(0.015625)"/>
      </defs>
      <use xlink:href="#DejaVuSans-4f"/>
      <use xlink:href="#DejaVuSans-72" transform="translate(78.710938 0)"/>
      <use xlink:href="#DejaVuSans-69" transform="translate(119.824219 0)"/>
      <use xlink:href="#DejaVuSans-67" transform="translate(147.607422 0)"/>
      <use xlink:href="#DejaVuSans-69" transform="translate(211.083984 0)"/>
      <use xlink:href="#DejaVuSans-6e" transform="translate(238.867188 0)"/>
      <use xlink:href="#DejaVuSans-61" transform="translate(302.246094 0)"/>
      <use xlink:href="#DejaVuSans-6c" transform="translate(363.525391 0)"/>
      <use xlink:href="#DejaVuSans-20" transform="translate(391.308594 0)"/>
      <use xlink:href="#DejaVuSans-74" transform="translate(423.095703 0)"/>
      <use xlink:href="#DejaVuSans-69" transform="translate(462.304688 0)"/>
      <use xlink:href="#DejaVuSans-6d" transform="translate(490.087891 0)"/>
      <use xlink:href="#DejaVuSans-65" transform="translate(587.5 0)"/>
      <use xlink:href="#DejaVuSans-20" transform="translate(649.023438 0)"/>
      <use xlink:href="#DejaVuSans-74" transform="translate(680.810547 0)"/>
     </g>
    </g>
   </g>
   <g id="matplotlib.axis_2">
    <g id="ytick_1">
     <g id="line2d_19">
      <path d="M 58.292428 306.703916 
L 776.753666 306.703916 
" clip-path="url(#p8536d5d539)" style="fill: none; stroke: #b0b0b0; stroke-opacity: 0.2; stroke-width: 0.8; stroke-linecap: square"/>
     </g>
     <g id="line2d_20">
      <defs>
       <path id="m915f7dc357" d="M 0 0 
L -3.5 0 
" style="stroke: #000000; stroke-width: 0.8"/>
      </defs>
      <g>
       <use xlink:href="#m915f7dc357" x="58.292428" y="306.703916" style="stroke: #000000; stroke-width: 0.8"/>
      </g>
     </g>
     <g id="text_11">
      <!-- 1.50 -->
      <g transform="translate(26.80024 310.883056) scale(0.11 -0.11)">
       <use xlink:href="#DejaVuSans-31"/>
       <use xlink:href="#DejaVuSans-2e" transform="translate(63.623047 0)"/>
       <use xlink:href="#DejaVuSans-35" transform="translate(95.410156 0)"/>
       <use xlink:href="#DejaVuSans-30" transform="translate(159.033203 0)"/>
      </g>
     </g>
    </g>
    <g id="ytick_2">
     <g id="line2d_21">
      <path d="M 58.292428 264.398954 
L 776.753666 264.398954 
" clip-path="url(#p8536d5d539)" style="fill: none; stroke: #b0b0b0; stroke-opacity: 0.2; stroke-width: 0.8; stroke-linecap: square"/>
     </g>
     <g id="line2d_22">
      <g>
       <use xlink:href="#m915f7dc357" x="58.292428" y="264.398954" style="stroke: #000000; stroke-width: 0.8"/>
      </g>
     </g>
     <g id="text_12">
      <!-- 1.75 -->
      <g transform="translate(26.80024 268.578095) scale(0.11 -0.11)">
       <use xlink:href="#DejaVuSans-31"/>
       <use xlink:href="#DejaVuSans-2e" transform="translate(63.623047 0)"/>
       <use xlink:href="#DejaVuSans-37" transform="translate(95.410156 0)"/>
       <use xlink:href="#DejaVuSans-35" transform="translate(159.033203 0)"/>
      </g>
     </g>
    </g>
    <g id="ytick_3">
     <g id="line2d_23">
      <path d="M 58.292428 222.093993 
L 776.753666 222.093993 
" clip-path="url(#p8536d5d539)" style="fill: none; stroke: #b0b0b0; stroke-opacity: 0.2; stroke-width: 0.8; stroke-linecap: square"/>
     </g>
     <g id="line2d_24">
      <g>
       <use xlink:href="#m915f7dc357" x="58.292428" y="222.093993" style="stroke: #000000; stroke-width: 0.8"/>
      </g>
     </g>
     <g id="text_13">
      <!-- 2.00 -->
      <g transform="translate(26.80024 226.273133) scale(0.11 -0.11)">
       <use xlink:href="#DejaVuSans-32"/>
       <use xlink:href="#DejaVuSans-2e" transform="translate(63.623047 0)"/>
       <use xlink:href="#DejaVuSans-30" transform="translate(95.410156 0)"/>
       <use xlink:href="#DejaVuSans-30" transform="translate(159.033203 0)"/>
      </g>
     </g>
    </g>
    <g id="ytick_4">
     <g id="line2d_25">
      <path d="M 58.292428 179.789031 
L 776.753666 179.789031 
" clip-path="url(#p8536d5d539)" style="fill: none; stroke: #b0b0b0; stroke-opacity: 0.2; stroke-width: 0.8; stroke-linecap: square"/>
     </g>
     <g id="line2d_26">
      <g>
       <use xlink:href="#m915f7dc357" x="58.292428" y="179.789031" style="stroke: #000000; stroke-width: 0.8"/>
      </g>
     </g>
     <g id="text_14">
      <!-- 2.25 -->
      <g transform="translate(26.80024 183.968172) scale(0.11 -0.11)">
       <use xlink:href="#DejaVuSans-32"/>
       <use xlink:href="#DejaVuSans-2e" transform="translate(63.623047 0)"/>
       <use xlink:href="#DejaVuSans-32" transform="translate(95.410156 0)"/>
       <use xlink:href="#DejaVuSans-35" transform="translate(159.033203 0)"/>
      </g>
     </g>
    </g>
    <g id="ytick_5">
     <g id="line2d_27">
      <path d="M 58.292428 137.48407 
L 776.753666 137.48407 
" clip-path="url(#p8536d5d539)" style="fill: none; stroke: #b0b0b0; stroke-opacity: 0.2; stroke-width: 0.8; stroke-linecap: square"/>
     </g>
     <g id="line2d_28">
      <g>
       <use xlink:href="#m915f7dc357" x="58.292428" y="137.48407" style="stroke: #000000; stroke-width: 0.8"/>
      </g>
     </g>
     <g id="text_15">
      <!-- 2.50 -->
      <g transform="translate(26.80024 141.66321) scale(0.11 -0.11)">
       <use xlink:href="#DejaVuSans-32"/>
       <use xlink:href="#DejaVuSans-2e" transform="translate(63.623047 0)"/>
       <use xlink:href="#DejaVuSans-35" transform="translate(95.410156 0)"/>
       <use xlink:href="#DejaVuSans-30" transform="translate(159.033203 0)"/>
      </g>
     </g>
    </g>
    <g id="ytick_6">
     <g id="line2d_29">
      <path d="M 58.292428 95.179108 
L 776.753666 95.179108 
" clip-path="url(#p8536d5d539)" style="fill: none; stroke: #b0b0b0; stroke-opacity: 0.2; stroke-width: 0.8; stroke-linecap: square"/>
     </g>
     <g id="line2d_30">
      <g>
       <use xlink:href="#m915f7dc357" x="58.292428" y="95.179108" style="stroke: #000000; stroke-width: 0.8"/>
      </g>
     </g>
     <g id="text_16">
      <!-- 2.75 -->
      <g transform="translate(26.80024 99.358249) scale(0.11 -0.11)">
       <use xlink:href="#DejaVuSans-32"/>
       <use xlink:href="#DejaVuSans-2e" transform="translate(63.623047 0)"/>
       <use xlink:href="#DejaVuSans-37" transform="translate(95.410156 0)"/>
       <use xlink:href="#DejaVuSans-35" transform="translate(159.033203 0)"/>
      </g>
     </g>
    </g>
    <g id="ytick_7">
     <g id="line2d_31">
      <path d="M 58.292428 52.874147 
L 776.753666 52.874147 
" clip-path="url(#p8536d5d539)" style="fill: none; stroke: #b0b0b0; stroke-opacity: 0.2; stroke-width: 0.8; stroke-linecap: square"/>
     </g>
     <g id="line2d_32">
      <g>
       <use xlink:href="#m915f7dc357" x="58.292428" y="52.874147" style="stroke: #000000; stroke-width: 0.8"/>
      </g>
     </g>
     <g id="text_17">
      <!-- 3.00 -->
      <g transform="translate(26.80024 57.053287) scale(0.11 -0.11)">
       <defs>
        <path id="DejaVuSans-33" d="M 2597 2516 
Q 3050 2419 3304 2112 
Q 3559 1806 3559 1356 
Q 3559 666 3084 287 
Q 2609 -91 1734 -91 
Q 1441 -91 1130 -33 
Q 819 25 488 141 
L 488 750 
Q 750 597 1062 519 
Q 1375 441 1716 441 
Q 2309 441 2620 675 
Q 2931 909 2931 1356 
Q 2931 1769 2642 2001 
Q 2353 2234 1838 2234 
L 1294 2234 
L 1294 2753 
L 1863 2753 
Q 2328 2753 2575 2939 
Q 2822 3125 2822 3475 
Q 2822 3834 2567 4026 
Q 2313 4219 1838 4219 
Q 1578 4219 1281 4162 
Q 984 4106 628 3988 
L 628 4550 
Q 988 4650 1302 4700 
Q 1616 4750 1894 4750 
Q 2613 4750 3031 4423 
Q 3450 4097 3450 3541 
Q 3450 3153 3228 2886 
Q 3006 2619 2597 2516 
z
" transform="scale(0.015625)"/>
       </defs>
       <use xlink:href="#DejaVuSans-33"/>
       <use xlink:href="#DejaVuSans-2e" transform="translate(63.623047 0)"/>
       <use xlink:href="#DejaVuSans-30" transform="translate(95.410156 0)"/>
       <use xlink:href="#DejaVuSans-30" transform="translate(159.033203 0)"/>
      </g>
     </g>
    </g>
    <g id="text_18">
     <!-- Physical energy $\int_{\mathbb{T}_{2\pi}^3}|u_z|^2\,dx$ -->
     <g transform="translate(14.88024 253.819031) rotate(-90) scale(0.11 -0.11)">
      <defs>
       <path id="DejaVuSans-50" d="M 1259 4147 
L 1259 2394 
L 2053 2394 
Q 2494 2394 2734 2622 
Q 2975 2850 2975 3272 
Q 2975 3691 2734 3919 
Q 2494 4147 2053 4147 
L 1259 4147 
z
M 628 4666 
L 2053 4666 
Q 2838 4666 3239 4311 
Q 3641 3956 3641 3272 
Q 3641 2581 3239 2228 
Q 2838 1875 2053 1875 
L 1259 1875 
L 1259 0 
L 628 0 
L 628 4666 
z
" transform="scale(0.015625)"/>
       <path id="DejaVuSans-68" d="M 3513 2113 
L 3513 0 
L 2938 0 
L 2938 2094 
Q 2938 2591 2744 2837 
Q 2550 3084 2163 3084 
Q 1697 3084 1428 2787 
Q 1159 2491 1159 1978 
L 1159 0 
L 581 0 
L 581 4863 
L 1159 4863 
L 1159 2956 
Q 1366 3272 1645 3428 
Q 1925 3584 2291 3584 
Q 2894 3584 3203 3211 
Q 3513 2838 3513 2113 
z
" transform="scale(0.015625)"/>
       <path id="DejaVuSans-79" d="M 2059 -325 
Q 1816 -950 1584 -1140 
Q 1353 -1331 966 -1331 
L 506 -1331 
L 506 -850 
L 844 -850 
Q 1081 -850 1212 -737 
Q 1344 -625 1503 -206 
L 1606 56 
L 191 3500 
L 800 3500 
L 1894 763 
L 2988 3500 
L 3597 3500 
L 2059 -325 
z
" transform="scale(0.015625)"/>
       <path id="DejaVuSans-73" d="M 2834 3397 
L 2834 2853 
Q 2591 2978 2328 3040 
Q 2066 3103 1784 3103 
Q 1356 3103 1142 2972 
Q 928 2841 928 2578 
Q 928 2378 1081 2264 
Q 1234 2150 1697 2047 
L 1894 2003 
Q 2506 1872 2764 1633 
Q 3022 1394 3022 966 
Q 3022 478 2636 193 
Q 2250 -91 1575 -91 
Q 1294 -91 989 -36 
Q 684 19 347 128 
L 347 722 
Q 666 556 975 473 
Q 1284 391 1588 391 
Q 1994 391 2212 530 
Q 2431 669 2431 922 
Q 2431 1156 2273 1281 
Q 2116 1406 1581 1522 
L 1381 1569 
Q 847 1681 609 1914 
Q 372 2147 372 2553 
Q 372 3047 722 3315 
Q 1072 3584 1716 3584 
Q 2034 3584 2315 3537 
Q 2597 3491 2834 3397 
z
" transform="scale(0.015625)"/>
       <path id="DejaVuSans-63" d="M 3122 3366 
L 3122 2828 
Q 2878 2963 2633 3030 
Q 2388 3097 2138 3097 
Q 1578 3097 1268 2742 
Q 959 2388 959 1747 
Q 959 1106 1268 751 
Q 1578 397 2138 397 
Q 2388 397 2633 464 
Q 2878 531 3122 666 
L 3122 134 
Q 2881 22 2623 -34 
Q 2366 -91 2075 -91 
Q 1284 -91 818 406 
Q 353 903 353 1747 
Q 353 2603 823 3093 
Q 1294 3584 2113 3584 
Q 2378 3584 2631 3529 
Q 2884 3475 3122 3366 
z
" transform="scale(0.015625)"/>
       <path id="DejaVuSansDisplay-222b" d="M 2134 5525 
Q 2172 6263 2528 6556 
Q 2884 6850 3218 6850 
Q 3553 6850 3833 6575 
Q 4113 6300 4200 5678 
L 3544 5613 
Q 3469 6188 3219 6188 
Q 2906 6188 2869 5413 
L 2581 -597 
Q 2547 -1334 2187 -1628 
Q 1828 -1922 1497 -1922 
Q 1163 -1922 883 -1647 
Q 603 -1372 516 -750 
L 1172 -684 
Q 1247 -1259 1497 -1259 
Q 1809 -1259 1847 -488 
L 2134 5525 
z
" transform="scale(0.015625)"/>
       <path id="STIXNonUnicode-Italic-e160" d="M 4365 4179 
L 4301 3942 
L 2765 3942 
L 1722 0 
L 736 0 
L 1792 3942 
L 192 3942 
L 256 4179 
L 4365 4179 
z
M 2515 3872 
L 2016 3872 
L 1043 237 
L 1542 237 
L 2515 3872 
z
" transform="scale(0.015625)"/>
       <path id="DejaVuSans-Oblique-3c0" d="M 584 3500 
L 3938 3500 
L 3825 2925 
L 3384 2925 
L 2966 775 
Q 2922 550 2981 450 
Q 3038 353 3209 353 
Q 3256 353 3325 363 
Q 3397 369 3419 372 
L 3338 -44 
Q 3222 -84 3103 -103 
Q 2981 -122 2866 -122 
Q 2491 -122 2388 81 
Q 2284 288 2391 838 
L 2797 2925 
L 1506 2925 
L 938 0 
L 350 0 
L 919 2925 
L 472 2925 
L 584 3500 
z
" transform="scale(0.015625)"/>
       <path id="DejaVuSans-7c" d="M 1344 4891 
L 1344 -1509 
L 813 -1509 
L 813 4891 
L 1344 4891 
z
" transform="scale(0.015625)"/>
       <path id="DejaVuSans-Oblique-75" d="M 428 1388 
L 838 3500 
L 1416 3500 
L 1006 1409 
Q 975 1256 961 1147 
Q 947 1038 947 966 
Q 947 700 1109 554 
Q 1272 409 1569 409 
Q 2031 409 2368 721 
Q 2706 1034 2809 1563 
L 3194 3500 
L 3769 3500 
L 3091 0 
L 2516 0 
L 2631 550 
Q 2388 244 2052 76 
Q 1716 -91 1338 -91 
Q 878 -91 622 161 
Q 366 413 366 863 
Q 366 956 381 1097 
Q 397 1238 428 1388 
z
" transform="scale(0.015625)"/>
       <path id="DejaVuSans-Oblique-7a" d="M 744 3500 
L 3475 3500 
L 3372 2975 
L 738 459 
L 2913 459 
L 2822 0 
L -19 0 
L 84 525 
L 2719 3041 
L 653 3041 
L 744 3500 
z
" transform="scale(0.015625)"/>
       <path id="DejaVuSans-Oblique-64" d="M 2675 525 
Q 2444 222 2128 65 
Q 1813 -91 1428 -91 
Q 903 -91 598 267 
Q 294 625 294 1247 
Q 294 1766 478 2236 
Q 663 2706 1013 3078 
Q 1244 3325 1534 3454 
Q 1825 3584 2144 3584 
Q 2481 3584 2739 3421 
Q 2997 3259 3138 2956 
L 3513 4863 
L 4091 4863 
L 3144 0 
L 2566 0 
L 2675 525 
z
M 891 1350 
Q 891 897 1095 644 
Q 1300 391 1663 391 
Q 1931 391 2161 520 
Q 2391 650 2566 903 
Q 2750 1166 2856 1509 
Q 2963 1853 2963 2188 
Q 2963 2622 2758 2865 
Q 2553 3109 2194 3109 
Q 1922 3109 1687 2981 
Q 1453 2853 1288 2613 
Q 1106 2353 998 2009 
Q 891 1666 891 1350 
z
" transform="scale(0.015625)"/>
       <path id="DejaVuSans-Oblique-78" d="M 3841 3500 
L 2234 1784 
L 3219 0 
L 2559 0 
L 1819 1388 
L 531 0 
L -166 0 
L 1556 1844 
L 641 3500 
L 1300 3500 
L 1972 2234 
L 3144 3500 
L 3841 3500 
z
" transform="scale(0.015625)"/>
      </defs>
      <use xlink:href="#DejaVuSans-50" transform="translate(0 0.96875)"/>
      <use xlink:href="#DejaVuSans-68" transform="translate(60.302734 0.96875)"/>
      <use xlink:href="#DejaVuSans-79" transform="translate(123.681641 0.96875)"/>
      <use xlink:href="#DejaVuSans-73" transform="translate(182.861328 0.96875)"/>
      <use xlink:href="#DejaVuSans-69" transform="translate(234.960938 0.96875)"/>
      <use xlink:href="#DejaVuSans-63" transform="translate(262.744141 0.96875)"/>
      <use xlink:href="#DejaVuSans-61" transform="translate(317.724609 0.96875)"/>
      <use xlink:href="#DejaVuSans-6c" transform="translate(379.003906 0.96875)"/>
      <use xlink:href="#DejaVuSans-20" transform="translate(406.787109 0.96875)"/>
      <use xlink:href="#DejaVuSans-65" transform="translate(438.574219 0.96875)"/>
      <use xlink:href="#DejaVuSans-6e" transform="translate(500.097656 0.96875)"/>
      <use xlink:href="#DejaVuSans-65" transform="translate(563.476562 0.96875)"/>
      <use xlink:href="#DejaVuSans-72" transform="translate(625 0.96875)"/>
      <use xlink:href="#DejaVuSans-67" transform="translate(666.113281 0.96875)"/>
      <use xlink:href="#DejaVuSans-79" transform="translate(729.589844 0.96875)"/>
      <use xlink:href="#DejaVuSans-20" transform="translate(788.769531 0.96875)"/>
      <use xlink:href="#DejaVuSansDisplay-222b" transform="translate(820.556641 0.96875)"/>
      <use xlink:href="#STIXNonUnicode-Italic-e160" transform="translate(892.316406 -50.9375) scale(0.7)"/>
      <use xlink:href="#DejaVuSans-33" transform="translate(925.39632 -24.140625) scale(0.49)"/>
      <use xlink:href="#DejaVuSans-32" transform="translate(925.39632 -70.078125) scale(0.49)"/>
      <use xlink:href="#DejaVuSans-Oblique-3c0" transform="translate(956.571613 -70.078125) scale(0.49)"/>
      <use xlink:href="#DejaVuSans-7c" transform="translate(987.986163 0.96875)"/>
      <use xlink:href="#DejaVuSans-Oblique-75" transform="translate(1021.67757 0.96875)"/>
      <use xlink:href="#DejaVuSans-Oblique-7a" transform="translate(1085.056476 -15.4375) scale(0.7)"/>
      <use xlink:href="#DejaVuSans-7c" transform="translate(1124.534015 0.96875)"/>
      <use xlink:href="#DejaVuSans-32" transform="translate(1159.182452 39.25) scale(0.7)"/>
      <use xlink:href="#DejaVuSans-Oblique-64" transform="translate(1222.688636 0.96875)"/>
      <use xlink:href="#DejaVuSans-Oblique-78" transform="translate(1286.165199 0.96875)"/>
     </g>
    </g>
   </g>
   <g id="line2d_33">
    <path d="M 58.292428 52.874147 
L 776.753666 52.874147 
L 776.753666 52.874147 
" clip-path="url(#p8536d5d539)" style="fill: none; stroke: #1d4ed8; stroke-width: 2.7; stroke-linecap: square"/>
   </g>
   <g id="line2d_34">
    <path d="M 58.292428 52.874147 
L 469.611487 52.97036 
L 478.592252 53.217371 
L 485.776865 53.633223 
L 491.165324 54.127314 
L 496.553783 54.816415 
L 501.942242 55.73271 
L 507.330702 56.904324 
L 512.719161 58.354391 
L 518.10762 60.100493 
L 523.49608 62.154416 
L 528.884539 64.52214 
L 534.272998 67.20401 
L 539.661457 70.19503 
L 545.049917 73.485239 
L 550.438376 77.060131 
L 555.826835 80.901106 
L 561.215295 84.985933 
L 568.399907 90.767383 
L 575.584519 96.869321 
L 584.565285 104.833708 
L 598.93451 117.984693 
L 613.303734 131.051587 
L 622.2845 138.88038 
L 629.469112 144.830982 
L 634.857572 149.064441 
L 640.246031 153.070659 
L 645.63449 156.82524 
L 651.022949 160.307111 
L 656.411409 163.498987 
L 661.799868 166.387828 
L 667.188327 168.96528 
L 672.576787 171.228092 
L 677.965246 173.178459 
L 683.353705 174.824286 
L 688.742165 176.1793 
L 694.130624 177.262975 
L 699.519083 178.10019 
L 704.907542 178.720547 
L 712.092155 179.268167 
L 719.276767 179.573393 
L 730.053686 179.752827 
L 753.403676 179.789026 
L 776.753666 179.789031 
L 776.753666 179.789031 
" clip-path="url(#p8536d5d539)" style="fill: none; stroke: #0f766e; stroke-width: 2.7; stroke-linecap: square"/>
   </g>
   <g id="line2d_35">
    <path d="M 58.292428 52.874147 
L 466.01918 52.976702 
L 473.203793 53.209015 
L 478.592252 53.560595 
L 483.980711 54.137614 
L 489.369171 55.011115 
L 492.961477 55.793227 
L 496.553783 56.758684 
L 500.146089 57.926259 
L 503.738396 59.313107 
L 507.330702 60.9345 
L 510.923008 62.803638 
L 514.515314 64.931513 
L 518.10762 67.32684 
L 521.699926 69.996025 
L 525.292233 72.943174 
L 528.884539 76.170133 
L 532.476845 79.676554 
L 536.069151 83.459974 
L 539.661457 87.515914 
L 543.253764 91.837987 
L 546.84607 96.418008 
L 552.234529 103.74969 
L 557.622988 111.599481 
L 563.011448 119.9207 
L 568.399907 128.66062 
L 573.788366 137.761365 
L 580.972979 150.349034 
L 589.953744 166.590626 
L 613.303734 209.229028 
L 620.488347 221.816697 
L 625.876806 230.917443 
L 631.265265 239.657363 
L 636.653725 247.978581 
L 642.042184 255.828372 
L 647.430643 263.160055 
L 651.022949 267.740076 
L 654.615256 272.062148 
L 658.207562 276.118089 
L 661.799868 279.901509 
L 665.392174 283.40793 
L 668.98448 286.634889 
L 672.576787 289.582038 
L 676.169093 292.251222 
L 679.761399 294.646549 
L 683.353705 296.774425 
L 686.946011 298.643562 
L 690.538318 300.264956 
L 694.130624 301.651803 
L 697.72293 302.819378 
L 701.315236 303.784835 
L 704.907542 304.566948 
L 710.296002 305.440448 
L 715.684461 306.017467 
L 721.07292 306.369047 
L 728.257533 306.601361 
L 739.034451 306.695864 
L 776.753666 306.703916 
L 776.753666 306.703916 
" clip-path="url(#p8536d5d539)" style="fill: none; stroke: #b45309; stroke-width: 2.7; stroke-linecap: square"/>
   </g>
   <g id="line2d_36">
    <path d="M 237.907737 340.547885 
L 237.907737 19.030177 
" clip-path="url(#p8536d5d539)" style="fill: none; stroke-dasharray: 5.55,2.4; stroke-dashoffset: 0; stroke: #64748b; stroke-width: 1.5"/>
   </g>
   <g id="patch_4">
    <path d="M 58.292428 340.547885 
L 58.292428 19.030177 
" style="fill: none; stroke: #000000; stroke-width: 0.8; stroke-linejoin: miter; stroke-linecap: square"/>
   </g>
   <g id="patch_5">
    <path d="M 776.753666 340.547885 
L 776.753666 19.030177 
" style="fill: none; stroke: #000000; stroke-width: 0.8; stroke-linejoin: miter; stroke-linecap: square"/>
   </g>
   <g id="patch_6">
    <path d="M 58.292428 340.547885 
L 776.753666 340.547885 
" style="fill: none; stroke: #000000; stroke-width: 0.8; stroke-linejoin: miter; stroke-linecap: square"/>
   </g>
   <g id="patch_7">
    <path d="M 58.292428 19.030177 
L 776.753666 19.030177 
" style="fill: none; stroke: #000000; stroke-width: 0.8; stroke-linejoin: miter; stroke-linecap: square"/>
   </g>
   <g id="text_19">
    <!-- Every velocity agrees -->
    <g transform="translate(94.230551 261.662134) scale(0.1 -0.1)">
     <defs>
      <path id="DejaVuSans-45" d="M 628 4666 
L 3578 4666 
L 3578 4134 
L 1259 4134 
L 1259 2753 
L 3481 2753 
L 3481 2222 
L 1259 2222 
L 1259 531 
L 3634 531 
L 3634 0 
L 628 0 
L 628 4666 
z
" transform="scale(0.015625)"/>
      <path id="DejaVuSans-76" d="M 191 3500 
L 800 3500 
L 1894 563 
L 2988 3500 
L 3597 3500 
L 2284 0 
L 1503 0 
L 191 3500 
z
" transform="scale(0.015625)"/>
      <path id="DejaVuSans-6f" d="M 1959 3097 
Q 1497 3097 1228 2736 
Q 959 2375 959 1747 
Q 959 1119 1226 758 
Q 1494 397 1959 397 
Q 2419 397 2687 759 
Q 2956 1122 2956 1747 
Q 2956 2369 2687 2733 
Q 2419 3097 1959 3097 
z
M 1959 3584 
Q 2709 3584 3137 3096 
Q 3566 2609 3566 1747 
Q 3566 888 3137 398 
Q 2709 -91 1959 -91 
Q 1206 -91 779 398 
Q 353 888 353 1747 
Q 353 2609 779 3096 
Q 1206 3584 1959 3584 
z
" transform="scale(0.015625)"/>
     </defs>
     <use xlink:href="#DejaVuSans-45"/>
     <use xlink:href="#DejaVuSans-76" transform="translate(63.183594 0)"/>
     <use xlink:href="#DejaVuSans-65" transform="translate(122.363281 0)"/>
     <use xlink:href="#DejaVuSans-72" transform="translate(183.886719 0)"/>
     <use xlink:href="#DejaVuSans-79" transform="translate(225 0)"/>
     <use xlink:href="#DejaVuSans-20" transform="translate(284.179688 0)"/>
     <use xlink:href="#DejaVuSans-76" transform="translate(315.966797 0)"/>
     <use xlink:href="#DejaVuSans-65" transform="translate(375.146484 0)"/>
     <use xlink:href="#DejaVuSans-6c" transform="translate(436.669922 0)"/>
     <use xlink:href="#DejaVuSans-6f" transform="translate(464.453125 0)"/>
     <use xlink:href="#DejaVuSans-63" transform="translate(525.634766 0)"/>
     <use xlink:href="#DejaVuSans-69" transform="translate(580.615234 0)"/>
     <use xlink:href="#DejaVuSans-74" transform="translate(608.398438 0)"/>
     <use xlink:href="#DejaVuSans-79" transform="translate(647.607422 0)"/>
     <use xlink:href="#DejaVuSans-20" transform="translate(706.787109 0)"/>
     <use xlink:href="#DejaVuSans-61" transform="translate(738.574219 0)"/>
     <use xlink:href="#DejaVuSans-67" transform="translate(799.853516 0)"/>
     <use xlink:href="#DejaVuSans-72" transform="translate(863.330078 0)"/>
     <use xlink:href="#DejaVuSans-65" transform="translate(902.193359 0)"/>
     <use xlink:href="#DejaVuSans-65" transform="translate(963.716797 0)"/>
     <use xlink:href="#DejaVuSans-73" transform="translate(1025.240234 0)"/>
    </g>
    <!-- through t = 0.5 -->
    <g transform="translate(109.588364 272.859947) scale(0.1 -0.1)">
     <defs>
      <path id="DejaVuSans-75" d="M 544 1381 
L 544 3500 
L 1119 3500 
L 1119 1403 
Q 1119 906 1312 657 
Q 1506 409 1894 409 
Q 2359 409 2629 706 
Q 2900 1003 2900 1516 
L 2900 3500 
L 3475 3500 
L 3475 0 
L 2900 0 
L 2900 538 
Q 2691 219 2414 64 
Q 2138 -91 1772 -91 
Q 1169 -91 856 284 
Q 544 659 544 1381 
z
M 1991 3584 
L 1991 3584 
z
" transform="scale(0.015625)"/>
      <path id="DejaVuSans-3d" d="M 678 2906 
L 4684 2906 
L 4684 2381 
L 678 2381 
L 678 2906 
z
M 678 1631 
L 4684 1631 
L 4684 1100 
L 678 1100 
L 678 1631 
z
" transform="scale(0.015625)"/>
     </defs>
     <use xlink:href="#DejaVuSans-74"/>
     <use xlink:href="#DejaVuSans-68" transform="translate(39.208984 0)"/>
     <use xlink:href="#DejaVuSans-72" transform="translate(102.587891 0)"/>
     <use xlink:href="#DejaVuSans-6f" transform="translate(141.451172 0)"/>
     <use xlink:href="#DejaVuSans-75" transform="translate(202.632812 0)"/>
     <use xlink:href="#DejaVuSans-67" transform="translate(266.011719 0)"/>
     <use xlink:href="#DejaVuSans-68" transform="translate(329.488281 0)"/>
     <use xlink:href="#DejaVuSans-20" transform="translate(392.867188 0)"/>
     <use xlink:href="#DejaVuSans-74" transform="translate(424.654297 0)"/>
     <use xlink:href="#DejaVuSans-20" transform="translate(463.863281 0)"/>
     <use xlink:href="#DejaVuSans-3d" transform="translate(495.650391 0)"/>
     <use xlink:href="#DejaVuSans-20" transform="translate(579.439453 0)"/>
     <use xlink:href="#DejaVuSans-30" transform="translate(611.226562 0)"/>
     <use xlink:href="#DejaVuSans-2e" transform="translate(674.849609 0)"/>
     <use xlink:href="#DejaVuSans-35" transform="translate(706.636719 0)"/>
    </g>
   </g>
   <g id="text_20">
    <!-- Same initial velocity; distinct prescribed energies -->
    <g transform="translate(254.564922 13.030177) scale(0.132 -0.132)">
     <defs>
      <path id="DejaVuSans-53" d="M 3425 4513 
L 3425 3897 
Q 3066 4069 2747 4153 
Q 2428 4238 2131 4238 
Q 1616 4238 1336 4038 
Q 1056 3838 1056 3469 
Q 1056 3159 1242 3001 
Q 1428 2844 1947 2747 
L 2328 2669 
Q 3034 2534 3370 2195 
Q 3706 1856 3706 1288 
Q 3706 609 3251 259 
Q 2797 -91 1919 -91 
Q 1588 -91 1214 -16 
Q 841 59 441 206 
L 441 856 
Q 825 641 1194 531 
Q 1563 422 1919 422 
Q 2459 422 2753 634 
Q 3047 847 3047 1241 
Q 3047 1584 2836 1778 
Q 2625 1972 2144 2069 
L 1759 2144 
Q 1053 2284 737 2584 
Q 422 2884 422 3419 
Q 422 4038 858 4394 
Q 1294 4750 2059 4750 
Q 2388 4750 2728 4690 
Q 3069 4631 3425 4513 
z
" transform="scale(0.015625)"/>
      <path id="DejaVuSans-3b" d="M 750 3309 
L 1409 3309 
L 1409 2516 
L 750 2516 
L 750 3309 
z
M 750 794 
L 1409 794 
L 1409 256 
L 897 -744 
L 494 -744 
L 750 256 
L 750 794 
z
" transform="scale(0.015625)"/>
      <path id="DejaVuSans-64" d="M 2906 2969 
L 2906 4863 
L 3481 4863 
L 3481 0 
L 2906 0 
L 2906 525 
Q 2725 213 2448 61 
Q 2172 -91 1784 -91 
Q 1150 -91 751 415 
Q 353 922 353 1747 
Q 353 2572 751 3078 
Q 1150 3584 1784 3584 
Q 2172 3584 2448 3432 
Q 2725 3281 2906 2969 
z
M 947 1747 
Q 947 1113 1208 752 
Q 1469 391 1925 391 
Q 2381 391 2643 752 
Q 2906 1113 2906 1747 
Q 2906 2381 2643 2742 
Q 2381 3103 1925 3103 
Q 1469 3103 1208 2742 
Q 947 2381 947 1747 
z
" transform="scale(0.015625)"/>
      <path id="DejaVuSans-70" d="M 1159 525 
L 1159 -1331 
L 581 -1331 
L 581 3500 
L 1159 3500 
L 1159 2969 
Q 1341 3281 1617 3432 
Q 1894 3584 2278 3584 
Q 2916 3584 3314 3078 
Q 3713 2572 3713 1747 
Q 3713 922 3314 415 
Q 2916 -91 2278 -91 
Q 1894 -91 1617 61 
Q 1341 213 1159 525 
z
M 3116 1747 
Q 3116 2381 2855 2742 
Q 2594 3103 2138 3103 
Q 1681 3103 1420 2742 
Q 1159 2381 1159 1747 
Q 1159 1113 1420 752 
Q 1681 391 2138 391 
Q 2594 391 2855 752 
Q 3116 1113 3116 1747 
z
" transform="scale(0.015625)"/>
      <path id="DejaVuSans-62" d="M 3116 1747 
Q 3116 2381 2855 2742 
Q 2594 3103 2138 3103 
Q 1681 3103 1420 2742 
Q 1159 2381 1159 1747 
Q 1159 1113 1420 752 
Q 1681 391 2138 391 
Q 2594 391 2855 752 
Q 3116 1113 3116 1747 
z
M 1159 2969 
Q 1341 3281 1617 3432 
Q 1894 3584 2278 3584 
Q 2916 3584 3314 3078 
Q 3713 2572 3713 1747 
Q 3713 922 3314 415 
Q 2916 -91 2278 -91 
Q 1894 -91 1617 61 
Q 1341 213 1159 525 
L 1159 0 
L 581 0 
L 581 4863 
L 1159 4863 
L 1159 2969 
z
" transform="scale(0.015625)"/>
     </defs>
     <use xlink:href="#DejaVuSans-53"/>
     <use xlink:href="#DejaVuSans-61" transform="translate(63.476562 0)"/>
     <use xlink:href="#DejaVuSans-6d" transform="translate(124.755859 0)"/>
     <use xlink:href="#DejaVuSans-65" transform="translate(222.167969 0)"/>
     <use xlink:href="#DejaVuSans-20" transform="translate(283.691406 0)"/>
     <use xlink:href="#DejaVuSans-69" transform="translate(315.478516 0)"/>
     <use xlink:href="#DejaVuSans-6e" transform="translate(343.261719 0)"/>
     <use xlink:href="#DejaVuSans-69" transform="translate(406.640625 0)"/>
     <use xlink:href="#DejaVuSans-74" transform="translate(434.423828 0)"/>
     <use xlink:href="#DejaVuSans-69" transform="translate(473.632812 0)"/>
     <use xlink:href="#DejaVuSans-61" transform="translate(501.416016 0)"/>
     <use xlink:href="#DejaVuSans-6c" transform="translate(562.695312 0)"/>
     <use xlink:href="#DejaVuSans-20" transform="translate(590.478516 0)"/>
     <use xlink:href="#DejaVuSans-76" transform="translate(622.265625 0)"/>
     <use xlink:href="#DejaVuSans-65" transform="translate(681.445312 0)"/>
     <use xlink:href="#DejaVuSans-6c" transform="translate(742.96875 0)"/>
     <use xlink:href="#DejaVuSans-6f" transform="translate(770.751953 0)"/>
     <use xlink:href="#DejaVuSans-63" transform="translate(831.933594 0)"/>
     <use xlink:href="#DejaVuSans-69" transform="translate(886.914062 0)"/>
     <use xlink:href="#DejaVuSans-74" transform="translate(914.697266 0)"/>
     <use xlink:href="#DejaVuSans-79" transform="translate(953.90625 0)"/>
     <use xlink:href="#DejaVuSans-3b" transform="translate(1013.085938 0)"/>
     <use xlink:href="#DejaVuSans-20" transform="translate(1046.777344 0)"/>
     <use xlink:href="#DejaVuSans-64" transform="translate(1078.564453 0)"/>
     <use xlink:href="#DejaVuSans-69" transform="translate(1142.041016 0)"/>
     <use xlink:href="#DejaVuSans-73" transform="translate(1169.824219 0)"/>
     <use xlink:href="#DejaVuSans-74" transform="translate(1221.923828 0)"/>
     <use xlink:href="#DejaVuSans-69" transform="translate(1261.132812 0)"/>
     <use xlink:href="#DejaVuSans-6e" transform="translate(1288.916016 0)"/>
     <use xlink:href="#DejaVuSans-63" transform="translate(1352.294922 0)"/>
     <use xlink:href="#DejaVuSans-74" transform="translate(1407.275391 0)"/>
     <use xlink:href="#DejaVuSans-20" transform="translate(1446.484375 0)"/>
     <use xlink:href="#DejaVuSans-70" transform="translate(1478.271484 0)"/>
     <use xlink:href="#DejaVuSans-72" transform="translate(1541.748047 0)"/>
     <use xlink:href="#DejaVuSans-65" transform="translate(1580.611328 0)"/>
     <use xlink:href="#DejaVuSans-73" transform="translate(1642.134766 0)"/>
     <use xlink:href="#DejaVuSans-63" transform="translate(1694.234375 0)"/>
     <use xlink:href="#DejaVuSans-72" transform="translate(1749.214844 0)"/>
     <use xlink:href="#DejaVuSans-69" transform="translate(1790.328125 0)"/>
     <use xlink:href="#DejaVuSans-62" transform="translate(1818.111328 0)"/>
     <use xlink:href="#DejaVuSans-65" transform="translate(1881.587891 0)"/>
     <use xlink:href="#DejaVuSans-64" transform="translate(1943.111328 0)"/>
     <use xlink:href="#DejaVuSans-20" transform="translate(2006.587891 0)"/>
     <use xlink:href="#DejaVuSans-65" transform="translate(2038.375 0)"/>
     <use xlink:href="#DejaVuSans-6e" transform="translate(2099.898438 0)"/>
     <use xlink:href="#DejaVuSans-65" transform="translate(2163.277344 0)"/>
     <use xlink:href="#DejaVuSans-72" transform="translate(2224.800781 0)"/>
     <use xlink:href="#DejaVuSans-67" transform="translate(2264.164062 0)"/>
     <use xlink:href="#DejaVuSans-69" transform="translate(2327.640625 0)"/>
     <use xlink:href="#DejaVuSans-65" transform="translate(2355.423828 0)"/>
     <use xlink:href="#DejaVuSans-73" transform="translate(2416.947266 0)"/>
    </g>
   </g>
   <g id="legend_1">
    <g id="patch_8">
     <path d="M 310.269249 328.617531 
L 557.439249 328.617531 
Q 559.639249 328.617531 559.639249 326.417531 
L 559.639249 311.371593 
Q 559.639249 309.171593 557.439249 309.171593 
L 310.269249 309.171593 
Q 308.069249 309.171593 308.069249 311.371593 
L 308.069249 326.417531 
Q 308.069249 328.617531 310.269249 328.617531 
z
" style="fill: #ffffff; opacity: 0.8; stroke: #cccccc; stroke-linejoin: miter"/>
    </g>
    <g id="line2d_37">
     <path d="M 312.469249 318.079875 
L 323.469249 318.079875 
L 334.469249 318.079875 
" style="fill: none; stroke: #1d4ed8; stroke-width: 2.7; stroke-linecap: square"/>
    </g>
    <g id="text_21">
     <!-- $z=0$ -->
     <g transform="translate(343.269249 321.929875) scale(0.11 -0.11)">
      <use xlink:href="#DejaVuSans-Oblique-7a" transform="translate(0 0.78125)"/>
      <use xlink:href="#DejaVuSans-3d" transform="translate(71.972656 0.78125)"/>
      <use xlink:href="#DejaVuSans-30" transform="translate(175.244141 0.78125)"/>
     </g>
    </g>
    <g id="line2d_38">
     <path d="M 391.559249 318.079875 
L 402.559249 318.079875 
L 413.559249 318.079875 
" style="fill: none; stroke: #0f766e; stroke-width: 2.7; stroke-linecap: square"/>
    </g>
    <g id="text_22">
     <!-- $z=0.25$ -->
     <g transform="translate(422.359249 321.929875) scale(0.11 -0.11)">
      <use xlink:href="#DejaVuSans-Oblique-7a" transform="translate(0 0.78125)"/>
      <use xlink:href="#DejaVuSans-3d" transform="translate(71.972656 0.78125)"/>
      <use xlink:href="#DejaVuSans-30" transform="translate(175.244141 0.78125)"/>
      <use xlink:href="#DejaVuSans-2e" transform="translate(238.867188 0.78125)"/>
      <use xlink:href="#DejaVuSans-32" transform="translate(265.154297 0.78125)"/>
      <use xlink:href="#DejaVuSans-35" transform="translate(328.777344 0.78125)"/>
     </g>
    </g>
    <g id="line2d_39">
     <path d="M 487.589249 318.079875 
L 498.589249 318.079875 
L 509.589249 318.079875 
" style="fill: none; stroke: #b45309; stroke-width: 2.7; stroke-linecap: square"/>
    </g>
    <g id="text_23">
     <!-- $z=0.5$ -->
     <g transform="translate(518.389249 321.929875) scale(0.11 -0.11)">
      <use xlink:href="#DejaVuSans-Oblique-7a" transform="translate(0 0.78125)"/>
      <use xlink:href="#DejaVuSans-3d" transform="translate(71.972656 0.78125)"/>
      <use xlink:href="#DejaVuSans-30" transform="translate(175.244141 0.78125)"/>
      <use xlink:href="#DejaVuSans-2e" transform="translate(238.867188 0.78125)"/>
      <use xlink:href="#DejaVuSans-35" transform="translate(270.654297 0.78125)"/>
     </g>
    </g>
   </g>
  </g>
  <g id="text_24">
   <!-- LC26–LC29 and EX14–EX15. T = 2, E* = 3; any fixed original viscosity ν &gt; 0. -->
   <g transform="translate(212.673125 400.138187) scale(0.1 -0.1)">
    <defs>
     <path id="DejaVuSans-4c" d="M 628 4666 
L 1259 4666 
L 1259 531 
L 3531 531 
L 3531 0 
L 628 0 
L 628 4666 
z
" transform="scale(0.015625)"/>
     <path id="DejaVuSans-43" d="M 4122 4306 
L 4122 3641 
Q 3803 3938 3442 4084 
Q 3081 4231 2675 4231 
Q 1875 4231 1450 3742 
Q 1025 3253 1025 2328 
Q 1025 1406 1450 917 
Q 1875 428 2675 428 
Q 3081 428 3442 575 
Q 3803 722 4122 1019 
L 4122 359 
Q 3791 134 3420 21 
Q 3050 -91 2638 -91 
Q 1578 -91 968 557 
Q 359 1206 359 2328 
Q 359 3453 968 4101 
Q 1578 4750 2638 4750 
Q 3056 4750 3426 4639 
Q 3797 4528 4122 4306 
z
" transform="scale(0.015625)"/>
     <path id="DejaVuSans-36" d="M 2113 2584 
Q 1688 2584 1439 2293 
Q 1191 2003 1191 1497 
Q 1191 994 1439 701 
Q 1688 409 2113 409 
Q 2538 409 2786 701 
Q 3034 994 3034 1497 
Q 3034 2003 2786 2293 
Q 2538 2584 2113 2584 
z
M 3366 4563 
L 3366 3988 
Q 3128 4100 2886 4159 
Q 2644 4219 2406 4219 
Q 1781 4219 1451 3797 
Q 1122 3375 1075 2522 
Q 1259 2794 1537 2939 
Q 1816 3084 2150 3084 
Q 2853 3084 3261 2657 
Q 3669 2231 3669 1497 
Q 3669 778 3244 343 
Q 2819 -91 2113 -91 
Q 1303 -91 875 529 
Q 447 1150 447 2328 
Q 447 3434 972 4092 
Q 1497 4750 2381 4750 
Q 2619 4750 2861 4703 
Q 3103 4656 3366 4563 
z
" transform="scale(0.015625)"/>
     <path id="DejaVuSans-2013" d="M 313 1978 
L 2888 1978 
L 2888 1528 
L 313 1528 
L 313 1978 
z
" transform="scale(0.015625)"/>
     <path id="DejaVuSans-39" d="M 703 97 
L 703 672 
Q 941 559 1184 500 
Q 1428 441 1663 441 
Q 2288 441 2617 861 
Q 2947 1281 2994 2138 
Q 2813 1869 2534 1725 
Q 2256 1581 1919 1581 
Q 1219 1581 811 2004 
Q 403 2428 403 3163 
Q 403 3881 828 4315 
Q 1253 4750 1959 4750 
Q 2769 4750 3195 4129 
Q 3622 3509 3622 2328 
Q 3622 1225 3098 567 
Q 2575 -91 1691 -91 
Q 1453 -91 1209 -44 
Q 966 3 703 97 
z
M 1959 2075 
Q 2384 2075 2632 2365 
Q 2881 2656 2881 3163 
Q 2881 3666 2632 3958 
Q 2384 4250 1959 4250 
Q 1534 4250 1286 3958 
Q 1038 3666 1038 3163 
Q 1038 2656 1286 2365 
Q 1534 2075 1959 2075 
z
" transform="scale(0.015625)"/>
     <path id="DejaVuSans-58" d="M 403 4666 
L 1081 4666 
L 2241 2931 
L 3406 4666 
L 4084 4666 
L 2584 2425 
L 4184 0 
L 3506 0 
L 2194 1984 
L 872 0 
L 191 0 
L 1856 2491 
L 403 4666 
z
" transform="scale(0.015625)"/>
     <path id="DejaVuSans-34" d="M 2419 4116 
L 825 1625 
L 2419 1625 
L 2419 4116 
z
M 2253 4666 
L 3047 4666 
L 3047 1625 
L 3713 1625 
L 3713 1100 
L 3047 1100 
L 3047 0 
L 2419 0 
L 2419 1100 
L 313 1100 
L 313 1709 
L 2253 4666 
z
" transform="scale(0.015625)"/>
     <path id="DejaVuSans-54" d="M -19 4666 
L 3928 4666 
L 3928 4134 
L 2272 4134 
L 2272 0 
L 1638 0 
L 1638 4134 
L -19 4134 
L -19 4666 
z
" transform="scale(0.015625)"/>
     <path id="DejaVuSans-2c" d="M 750 794 
L 1409 794 
L 1409 256 
L 897 -744 
L 494 -744 
L 750 256 
L 750 794 
z
" transform="scale(0.015625)"/>
     <path id="DejaVuSans-2a" d="M 3009 3897 
L 1888 3291 
L 3009 2681 
L 2828 2375 
L 1778 3009 
L 1778 1831 
L 1422 1831 
L 1422 3009 
L 372 2375 
L 191 2681 
L 1313 3291 
L 191 3897 
L 372 4206 
L 1422 3572 
L 1422 4750 
L 1778 4750 
L 1778 3572 
L 2828 4206 
L 3009 3897 
z
" transform="scale(0.015625)"/>
     <path id="DejaVuSans-66" d="M 2375 4863 
L 2375 4384 
L 1825 4384 
Q 1516 4384 1395 4259 
Q 1275 4134 1275 3809 
L 1275 3500 
L 2222 3500 
L 2222 3053 
L 1275 3053 
L 1275 0 
L 697 0 
L 697 3053 
L 147 3053 
L 147 3500 
L 697 3500 
L 697 3744 
Q 697 4328 969 4595 
Q 1241 4863 1831 4863 
L 2375 4863 
z
" transform="scale(0.015625)"/>
     <path id="DejaVuSans-78" d="M 3513 3500 
L 2247 1797 
L 3578 0 
L 2900 0 
L 1881 1375 
L 863 0 
L 184 0 
L 1544 1831 
L 300 3500 
L 978 3500 
L 1906 2253 
L 2834 3500 
L 3513 3500 
z
" transform="scale(0.015625)"/>
     <path id="DejaVuSans-3bd" d="M 1300 0 
L 231 3500 
L 850 3500 
L 1753 563 
Q 2128 950 2441 1488 
Q 2678 1891 2691 2241 
Q 2697 2406 2622 2719 
Q 2534 3091 2203 3500 
L 2784 3500 
L 2784 3500 
Q 3000 3222 3144 2834 
Q 3275 2478 3275 2234 
Q 3275 1622 2850 1075 
Q 2297 363 1913 0 
L 1300 0 
z
" transform="scale(0.015625)"/>
     <path id="DejaVuSans-3e" d="M 678 3150 
L 678 3719 
L 4684 2266 
L 4684 1747 
L 678 294 
L 678 863 
L 3897 2003 
L 678 3150 
z
" transform="scale(0.015625)"/>
    </defs>
    <use xlink:href="#DejaVuSans-4c"/>
    <use xlink:href="#DejaVuSans-43" transform="translate(55.712891 0)"/>
    <use xlink:href="#DejaVuSans-32" transform="translate(125.537109 0)"/>
    <use xlink:href="#DejaVuSans-36" transform="translate(189.160156 0)"/>
    <use xlink:href="#DejaVuSans-2013" transform="translate(252.783203 0)"/>
    <use xlink:href="#DejaVuSans-4c" transform="translate(302.783203 0)"/>
    <use xlink:href="#DejaVuSans-43" transform="translate(358.496094 0)"/>
    <use xlink:href="#DejaVuSans-32" transform="translate(428.320312 0)"/>
    <use xlink:href="#DejaVuSans-39" transform="translate(491.943359 0)"/>
    <use xlink:href="#DejaVuSans-20" transform="translate(555.566406 0)"/>
    <use xlink:href="#DejaVuSans-61" transform="translate(587.353516 0)"/>
    <use xlink:href="#DejaVuSans-6e" transform="translate(648.632812 0)"/>
    <use xlink:href="#DejaVuSans-64" transform="translate(712.011719 0)"/>
    <use xlink:href="#DejaVuSans-20" transform="translate(775.488281 0)"/>
    <use xlink:href="#DejaVuSans-45" transform="translate(807.275391 0)"/>
    <use xlink:href="#DejaVuSans-58" transform="translate(870.458984 0)"/>
    <use xlink:href="#DejaVuSans-31" transform="translate(938.964844 0)"/>
    <use xlink:href="#DejaVuSans-34" transform="translate(1002.587891 0)"/>
    <use xlink:href="#DejaVuSans-2013" transform="translate(1066.210938 0)"/>
    <use xlink:href="#DejaVuSans-45" transform="translate(1116.210938 0)"/>
    <use xlink:href="#DejaVuSans-58" transform="translate(1179.394531 0)"/>
    <use xlink:href="#DejaVuSans-31" transform="translate(1247.900391 0)"/>
    <use xlink:href="#DejaVuSans-35" transform="translate(1311.523438 0)"/>
    <use xlink:href="#DejaVuSans-2e" transform="translate(1375.146484 0)"/>
    <use xlink:href="#DejaVuSans-20" transform="translate(1406.933594 0)"/>
    <use xlink:href="#DejaVuSans-54" transform="translate(1438.720703 0)"/>
    <use xlink:href="#DejaVuSans-20" transform="translate(1499.804688 0)"/>
    <use xlink:href="#DejaVuSans-3d" transform="translate(1531.591797 0)"/>
    <use xlink:href="#DejaVuSans-20" transform="translate(1615.380859 0)"/>
    <use xlink:href="#DejaVuSans-32" transform="translate(1647.167969 0)"/>
    <use xlink:href="#DejaVuSans-2c" transform="translate(1710.791016 0)"/>
    <use xlink:href="#DejaVuSans-20" transform="translate(1742.578125 0)"/>
    <use xlink:href="#DejaVuSans-45" transform="translate(1774.365234 0)"/>
    <use xlink:href="#DejaVuSans-2a" transform="translate(1837.548828 0)"/>
    <use xlink:href="#DejaVuSans-20" transform="translate(1887.548828 0)"/>
    <use xlink:href="#DejaVuSans-3d" transform="translate(1919.335938 0)"/>
    <use xlink:href="#DejaVuSans-20" transform="translate(2003.125 0)"/>
    <use xlink:href="#DejaVuSans-33" transform="translate(2034.912109 0)"/>
    <use xlink:href="#DejaVuSans-3b" transform="translate(2098.535156 0)"/>
    <use xlink:href="#DejaVuSans-20" transform="translate(2132.226562 0)"/>
    <use xlink:href="#DejaVuSans-61" transform="translate(2164.013672 0)"/>
    <use xlink:href="#DejaVuSans-6e" transform="translate(2225.292969 0)"/>
    <use xlink:href="#DejaVuSans-79" transform="translate(2288.671875 0)"/>
    <use xlink:href="#DejaVuSans-20" transform="translate(2347.851562 0)"/>
    <use xlink:href="#DejaVuSans-66" transform="translate(2379.638672 0)"/>
    <use xlink:href="#DejaVuSans-69" transform="translate(2414.84375 0)"/>
    <use xlink:href="#DejaVuSans-78" transform="translate(2442.626953 0)"/>
    <use xlink:href="#DejaVuSans-65" transform="translate(2498.681641 0)"/>
    <use xlink:href="#DejaVuSans-64" transform="translate(2560.205078 0)"/>
    <use xlink:href="#DejaVuSans-20" transform="translate(2623.681641 0)"/>
    <use xlink:href="#DejaVuSans-6f" transform="translate(2655.46875 0)"/>
    <use xlink:href="#DejaVuSans-72" transform="translate(2716.650391 0)"/>
    <use xlink:href="#DejaVuSans-69" transform="translate(2757.763672 0)"/>
    <use xlink:href="#DejaVuSans-67" transform="translate(2785.546875 0)"/>
    <use xlink:href="#DejaVuSans-69" transform="translate(2849.023438 0)"/>
    <use xlink:href="#DejaVuSans-6e" transform="translate(2876.806641 0)"/>
    <use xlink:href="#DejaVuSans-61" transform="translate(2940.185547 0)"/>
    <use xlink:href="#DejaVuSans-6c" transform="translate(3001.464844 0)"/>
    <use xlink:href="#DejaVuSans-20" transform="translate(3029.248047 0)"/>
    <use xlink:href="#DejaVuSans-76" transform="translate(3061.035156 0)"/>
    <use xlink:href="#DejaVuSans-69" transform="translate(3120.214844 0)"/>
    <use xlink:href="#DejaVuSans-73" transform="translate(3147.998047 0)"/>
    <use xlink:href="#DejaVuSans-63" transform="translate(3200.097656 0)"/>
    <use xlink:href="#DejaVuSans-6f" transform="translate(3255.078125 0)"/>
    <use xlink:href="#DejaVuSans-73" transform="translate(3316.259766 0)"/>
    <use xlink:href="#DejaVuSans-69" transform="translate(3368.359375 0)"/>
    <use xlink:href="#DejaVuSans-74" transform="translate(3396.142578 0)"/>
    <use xlink:href="#DejaVuSans-79" transform="translate(3435.351562 0)"/>
    <use xlink:href="#DejaVuSans-20" transform="translate(3494.53125 0)"/>
    <use xlink:href="#DejaVuSans-3bd" transform="translate(3526.318359 0)"/>
    <use xlink:href="#DejaVuSans-20" transform="translate(3582.177734 0)"/>
    <use xlink:href="#DejaVuSans-3e" transform="translate(3613.964844 0)"/>
    <use xlink:href="#DejaVuSans-20" transform="translate(3697.753906 0)"/>
    <use xlink:href="#DejaVuSans-30" transform="translate(3729.541016 0)"/>
    <use xlink:href="#DejaVuSans-2e" transform="translate(3793.164062 0)"/>
   </g>
   <!-- Numerical samples of the exact smooth profiles; shaded interval is the proved velocity agreement. -->
   <g transform="translate(155.973125 411.336) scale(0.1 -0.1)">
    <defs>
     <path id="DejaVuSans-4e" d="M 628 4666 
L 1478 4666 
L 3547 763 
L 3547 4666 
L 4159 4666 
L 4159 0 
L 3309 0 
L 1241 3903 
L 1241 0 
L 628 0 
L 628 4666 
z
" transform="scale(0.015625)"/>
    </defs>
    <use xlink:href="#DejaVuSans-4e"/>
    <use xlink:href="#DejaVuSans-75" transform="translate(74.804688 0)"/>
    <use xlink:href="#DejaVuSans-6d" transform="translate(138.183594 0)"/>
    <use xlink:href="#DejaVuSans-65" transform="translate(235.595703 0)"/>
    <use xlink:href="#DejaVuSans-72" transform="translate(297.119141 0)"/>
    <use xlink:href="#DejaVuSans-69" transform="translate(338.232422 0)"/>
    <use xlink:href="#DejaVuSans-63" transform="translate(366.015625 0)"/>
    <use xlink:href="#DejaVuSans-61" transform="translate(420.996094 0)"/>
    <use xlink:href="#DejaVuSans-6c" transform="translate(482.275391 0)"/>
    <use xlink:href="#DejaVuSans-20" transform="translate(510.058594 0)"/>
    <use xlink:href="#DejaVuSans-73" transform="translate(541.845703 0)"/>
    <use xlink:href="#DejaVuSans-61" transform="translate(593.945312 0)"/>
    <use xlink:href="#DejaVuSans-6d" transform="translate(655.224609 0)"/>
    <use xlink:href="#DejaVuSans-70" transform="translate(752.636719 0)"/>
    <use xlink:href="#DejaVuSans-6c" transform="translate(816.113281 0)"/>
    <use xlink:href="#DejaVuSans-65" transform="translate(843.896484 0)"/>
    <use xlink:href="#DejaVuSans-73" transform="translate(905.419922 0)"/>
    <use xlink:href="#DejaVuSans-20" transform="translate(957.519531 0)"/>
    <use xlink:href="#DejaVuSans-6f" transform="translate(989.306641 0)"/>
    <use xlink:href="#DejaVuSans-66" transform="translate(1050.488281 0)"/>
    <use xlink:href="#DejaVuSans-20" transform="translate(1085.693359 0)"/>
    <use xlink:href="#DejaVuSans-74" transform="translate(1117.480469 0)"/>
    <use xlink:href="#DejaVuSans-68" transform="translate(1156.689453 0)"/>
    <use xlink:href="#DejaVuSans-65" transform="translate(1220.068359 0)"/>
    <use xlink:href="#DejaVuSans-20" transform="translate(1281.591797 0)"/>
    <use xlink:href="#DejaVuSans-65" transform="translate(1313.378906 0)"/>
    <use xlink:href="#DejaVuSans-78" transform="translate(1373.152344 0)"/>
    <use xlink:href="#DejaVuSans-61" transform="translate(1432.332031 0)"/>
    <use xlink:href="#DejaVuSans-63" transform="translate(1493.611328 0)"/>
    <use xlink:href="#DejaVuSans-74" transform="translate(1548.591797 0)"/>
    <use xlink:href="#DejaVuSans-20" transform="translate(1587.800781 0)"/>
    <use xlink:href="#DejaVuSans-73" transform="translate(1619.587891 0)"/>
    <use xlink:href="#DejaVuSans-6d" transform="translate(1671.6875 0)"/>
    <use xlink:href="#DejaVuSans-6f" transform="translate(1769.099609 0)"/>
    <use xlink:href="#DejaVuSans-6f" transform="translate(1830.28125 0)"/>
    <use xlink:href="#DejaVuSans-74" transform="translate(1891.462891 0)"/>
    <use xlink:href="#DejaVuSans-68" transform="translate(1930.671875 0)"/>
    <use xlink:href="#DejaVuSans-20" transform="translate(1994.050781 0)"/>
    <use xlink:href="#DejaVuSans-70" transform="translate(2025.837891 0)"/>
    <use xlink:href="#DejaVuSans-72" transform="translate(2089.314453 0)"/>
    <use xlink:href="#DejaVuSans-6f" transform="translate(2128.177734 0)"/>
    <use xlink:href="#DejaVuSans-66" transform="translate(2189.359375 0)"/>
    <use xlink:href="#DejaVuSans-69" transform="translate(2224.564453 0)"/>
    <use xlink:href="#DejaVuSans-6c" transform="translate(2252.347656 0)"/>
    <use xlink:href="#DejaVuSans-65" transform="translate(2280.130859 0)"/>
    <use xlink:href="#DejaVuSans-73" transform="translate(2341.654297 0)"/>
    <use xlink:href="#DejaVuSans-3b" transform="translate(2393.753906 0)"/>
    <use xlink:href="#DejaVuSans-20" transform="translate(2427.445312 0)"/>
    <use xlink:href="#DejaVuSans-73" transform="translate(2459.232422 0)"/>
    <use xlink:href="#DejaVuSans-68" transform="translate(2511.332031 0)"/>
    <use xlink:href="#DejaVuSans-61" transform="translate(2574.710938 0)"/>
    <use xlink:href="#DejaVuSans-64" transform="translate(2635.990234 0)"/>
    <use xlink:href="#DejaVuSans-65" transform="translate(2699.466797 0)"/>
    <use xlink:href="#DejaVuSans-64" transform="translate(2760.990234 0)"/>
    <use xlink:href="#DejaVuSans-20" transform="translate(2824.466797 0)"/>
    <use xlink:href="#DejaVuSans-69" transform="translate(2856.253906 0)"/>
    <use xlink:href="#DejaVuSans-6e" transform="translate(2884.037109 0)"/>
    <use xlink:href="#DejaVuSans-74" transform="translate(2947.416016 0)"/>
    <use xlink:href="#DejaVuSans-65" transform="translate(2986.625 0)"/>
    <use xlink:href="#DejaVuSans-72" transform="translate(3048.148438 0)"/>
    <use xlink:href="#DejaVuSans-76" transform="translate(3089.261719 0)"/>
    <use xlink:href="#DejaVuSans-61" transform="translate(3148.441406 0)"/>
    <use xlink:href="#DejaVuSans-6c" transform="translate(3209.720703 0)"/>
    <use xlink:href="#DejaVuSans-20" transform="translate(3237.503906 0)"/>
    <use xlink:href="#DejaVuSans-69" transform="translate(3269.291016 0)"/>
    <use xlink:href="#DejaVuSans-73" transform="translate(3297.074219 0)"/>
    <use xlink:href="#DejaVuSans-20" transform="translate(3349.173828 0)"/>
    <use xlink:href="#DejaVuSans-74" transform="translate(3380.960938 0)"/>
    <use xlink:href="#DejaVuSans-68" transform="translate(3420.169922 0)"/>
    <use xlink:href="#DejaVuSans-65" transform="translate(3483.548828 0)"/>
    <use xlink:href="#DejaVuSans-20" transform="translate(3545.072266 0)"/>
    <use xlink:href="#DejaVuSans-70" transform="translate(3576.859375 0)"/>
    <use xlink:href="#DejaVuSans-72" transform="translate(3640.335938 0)"/>
    <use xlink:href="#DejaVuSans-6f" transform="translate(3679.199219 0)"/>
    <use xlink:href="#DejaVuSans-76" transform="translate(3740.380859 0)"/>
    <use xlink:href="#DejaVuSans-65" transform="translate(3799.560547 0)"/>
    <use xlink:href="#DejaVuSans-64" transform="translate(3861.083984 0)"/>
    <use xlink:href="#DejaVuSans-20" transform="translate(3924.560547 0)"/>
    <use xlink:href="#DejaVuSans-76" transform="translate(3956.347656 0)"/>
    <use xlink:href="#DejaVuSans-65" transform="translate(4015.527344 0)"/>
    <use xlink:href="#DejaVuSans-6c" transform="translate(4077.050781 0)"/>
    <use xlink:href="#DejaVuSans-6f" transform="translate(4104.833984 0)"/>
    <use xlink:href="#DejaVuSans-63" transform="translate(4166.015625 0)"/>
    <use xlink:href="#DejaVuSans-69" transform="translate(4220.996094 0)"/>
    <use xlink:href="#DejaVuSans-74" transform="translate(4248.779297 0)"/>
    <use xlink:href="#DejaVuSans-79" transform="translate(4287.988281 0)"/>
    <use xlink:href="#DejaVuSans-20" transform="translate(4347.167969 0)"/>
    <use xlink:href="#DejaVuSans-61" transform="translate(4378.955078 0)"/>
    <use xlink:href="#DejaVuSans-67" transform="translate(4440.234375 0)"/>
    <use xlink:href="#DejaVuSans-72" transform="translate(4503.710938 0)"/>
    <use xlink:href="#DejaVuSans-65" transform="translate(4542.574219 0)"/>
    <use xlink:href="#DejaVuSans-65" transform="translate(4604.097656 0)"/>
    <use xlink:href="#DejaVuSans-6d" transform="translate(4665.621094 0)"/>
    <use xlink:href="#DejaVuSans-65" transform="translate(4763.033203 0)"/>
    <use xlink:href="#DejaVuSans-6e" transform="translate(4824.556641 0)"/>
    <use xlink:href="#DejaVuSans-74" transform="translate(4887.935547 0)"/>
    <use xlink:href="#DejaVuSans-2e" transform="translate(4927.144531 0)"/>
   </g>
  </g>
 </g>
 <defs>
  <clipPath id="p8536d5d539">
   <rect x="58.292428" y="19.030177" width="718.461239" height="321.517708"/>
  </clipPath>
 </defs>
</svg>
