<svg xmlns="http://www.w3.org/2000/svg" width="900" height="620" viewBox="0 0 900 620" role="img" aria-labelledby="title desc">
<title id="title">Disjoint rows force separated left columns</title>
<desc id="desc">Two lattice triangles of slope two have vertices (1,0),(1,8),(5,8) and (7,1),(7,9),(11,9). At height four their integer rows are 1,2,3 and 7,8. Their left columns cannot approach closer than a full row length without intersection. The drawing is a rational-slope schematic, not an arithmetic phase set.</desc>
<rect width="900" height="620" fill="#fff"/>
<g font-family="Arial, sans-serif" font-size="19" fill="#182c38">
<text x="40" y="35" text-anchor="start" font-size="22" fill="#182c38">A shared height turns triangular geometry into interval packing</text>
<line x1="90" y1="500" x2="90" y2="80" stroke="#dfe6ea" stroke-width="1"/>
<line x1="149" y1="500" x2="149" y2="80" stroke="#dfe6ea" stroke-width="1"/>
<line x1="208" y1="500" x2="208" y2="80" stroke="#dfe6ea" stroke-width="1"/>
<line x1="267" y1="500" x2="267" y2="80" stroke="#dfe6ea" stroke-width="1"/>
<line x1="326" y1="500" x2="326" y2="80" stroke="#dfe6ea" stroke-width="1"/>
<line x1="385" y1="500" x2="385" y2="80" stroke="#dfe6ea" stroke-width="1"/>
<line x1="444" y1="500" x2="444" y2="80" stroke="#dfe6ea" stroke-width="1"/>
<line x1="503" y1="500" x2="503" y2="80" stroke="#dfe6ea" stroke-width="1"/>
<line x1="562" y1="500" x2="562" y2="80" stroke="#dfe6ea" stroke-width="1"/>
<line x1="621" y1="500" x2="621" y2="80" stroke="#dfe6ea" stroke-width="1"/>
<line x1="680" y1="500" x2="680" y2="80" stroke="#dfe6ea" stroke-width="1"/>
<line x1="739" y1="500" x2="739" y2="80" stroke="#dfe6ea" stroke-width="1"/>
<line x1="798" y1="500" x2="798" y2="80" stroke="#dfe6ea" stroke-width="1"/>
<line x1="90" y1="500" x2="798" y2="500" stroke="#dfe6ea" stroke-width="1"/>
<line x1="90" y1="458" x2="798" y2="458" stroke="#dfe6ea" stroke-width="1"/>
<line x1="90" y1="416" x2="798" y2="416" stroke="#dfe6ea" stroke-width="1"/>
<line x1="90" y1="374" x2="798" y2="374" stroke="#dfe6ea" stroke-width="1"/>
<line x1="90" y1="332" x2="798" y2="332" stroke="#dfe6ea" stroke-width="1"/>
<line x1="90" y1="290" x2="798" y2="290" stroke="#dfe6ea" stroke-width="1"/>
<line x1="90" y1="248" x2="798" y2="248" stroke="#dfe6ea" stroke-width="1"/>
<line x1="90" y1="206" x2="798" y2="206" stroke="#dfe6ea" stroke-width="1"/>
<line x1="90" y1="164" x2="798" y2="164" stroke="#dfe6ea" stroke-width="1"/>
<line x1="90" y1="122" x2="798" y2="122" stroke="#dfe6ea" stroke-width="1"/>
<line x1="90" y1="80" x2="798" y2="80" stroke="#dfe6ea" stroke-width="1"/>
<polygon points="149,500 149,164 385.0,164" fill="#cfdeeb" stroke="#355c70" stroke-width="2"/>
<circle cx="149" cy="500" r="3.2" fill="#355c70"/>
<circle cx="149" cy="458" r="3.2" fill="#355c70"/>
<circle cx="149" cy="416" r="3.2" fill="#355c70"/>
<circle cx="208" cy="416" r="3.2" fill="#355c70"/>
<circle cx="149" cy="374" r="3.2" fill="#355c70"/>
<circle cx="208" cy="374" r="3.2" fill="#355c70"/>
<circle cx="149" cy="332" r="3.2" fill="#355c70"/>
<circle cx="208" cy="332" r="3.2" fill="#355c70"/>
<circle cx="267" cy="332" r="3.2" fill="#355c70"/>
<circle cx="149" cy="290" r="3.2" fill="#355c70"/>
<circle cx="208" cy="290" r="3.2" fill="#355c70"/>
<circle cx="267" cy="290" r="3.2" fill="#355c70"/>
<circle cx="149" cy="248" r="3.2" fill="#355c70"/>
<circle cx="208" cy="248" r="3.2" fill="#355c70"/>
<circle cx="267" cy="248" r="3.2" fill="#355c70"/>
<circle cx="326" cy="248" r="3.2" fill="#355c70"/>
<circle cx="149" cy="206" r="3.2" fill="#355c70"/>
<circle cx="208" cy="206" r="3.2" fill="#355c70"/>
<circle cx="267" cy="206" r="3.2" fill="#355c70"/>
<circle cx="326" cy="206" r="3.2" fill="#355c70"/>
<circle cx="149" cy="164" r="3.2" fill="#355c70"/>
<circle cx="208" cy="164" r="3.2" fill="#355c70"/>
<circle cx="267" cy="164" r="3.2" fill="#355c70"/>
<circle cx="326" cy="164" r="3.2" fill="#355c70"/>
<circle cx="385" cy="164" r="3.2" fill="#355c70"/>
<polygon points="503,458 503,122 739.0,122" fill="#dbebe1" stroke="#355c70" stroke-width="2"/>
<circle cx="503" cy="458" r="3.2" fill="#355c70"/>
<circle cx="503" cy="416" r="3.2" fill="#355c70"/>
<circle cx="503" cy="374" r="3.2" fill="#355c70"/>
<circle cx="562" cy="374" r="3.2" fill="#355c70"/>
<circle cx="503" cy="332" r="3.2" fill="#355c70"/>
<circle cx="562" cy="332" r="3.2" fill="#355c70"/>
<circle cx="503" cy="290" r="3.2" fill="#355c70"/>
<circle cx="562" cy="290" r="3.2" fill="#355c70"/>
<circle cx="621" cy="290" r="3.2" fill="#355c70"/>
<circle cx="503" cy="248" r="3.2" fill="#355c70"/>
<circle cx="562" cy="248" r="3.2" fill="#355c70"/>
<circle cx="621" cy="248" r="3.2" fill="#355c70"/>
<circle cx="503" cy="206" r="3.2" fill="#355c70"/>
<circle cx="562" cy="206" r="3.2" fill="#355c70"/>
<circle cx="621" cy="206" r="3.2" fill="#355c70"/>
<circle cx="680" cy="206" r="3.2" fill="#355c70"/>
<circle cx="503" cy="164" r="3.2" fill="#355c70"/>
<circle cx="562" cy="164" r="3.2" fill="#355c70"/>
<circle cx="621" cy="164" r="3.2" fill="#355c70"/>
<circle cx="680" cy="164" r="3.2" fill="#355c70"/>
<circle cx="503" cy="122" r="3.2" fill="#355c70"/>
<circle cx="562" cy="122" r="3.2" fill="#355c70"/>
<circle cx="621" cy="122" r="3.2" fill="#355c70"/>
<circle cx="680" cy="122" r="3.2" fill="#355c70"/>
<circle cx="739" cy="122" r="3.2" fill="#355c70"/>
<line x1="90" y1="332" x2="798" y2="332" stroke="#a53d29" stroke-width="2" stroke-dasharray="7 6"/>
<line x1="149" y1="332" x2="267" y2="332" stroke="#a53d29" stroke-width="5"/>
<circle cx="149" cy="332" r="6" fill="#a53d29"/>
<circle cx="208" cy="332" r="6" fill="#a53d29"/>
<circle cx="267" cy="332" r="6" fill="#a53d29"/>
<line x1="503" y1="332" x2="591.5" y2="332" stroke="#a53d29" stroke-width="5"/>
<circle cx="503" cy="332" r="6" fill="#a53d29"/>
<circle cx="562" cy="332" r="6" fill="#a53d29"/>
<text x="77" y="339" text-anchor="end" font-size="19" fill="#a53d29">t*</text>
<text x="184" y="279" text-anchor="start" font-size="18" fill="#a53d29">first row</text>
<text x="510" y="279" text-anchor="start" font-size="18" fill="#a53d29">second row</text>
<text x="192" y="137" text-anchor="start" font-size="24" fill="#182c38">Δ′</text>
<text x="540" y="93" text-anchor="start" font-size="24" fill="#182c38">Δ″</text>
<line x1="90" y1="500" x2="812.75" y2="500" stroke="#182c38" stroke-width="2"/>
<line x1="90" y1="500" x2="90" y2="71.60000000000002" stroke="#182c38" stroke-width="2"/>
<text x="834" y="506" text-anchor="start" font-size="19" fill="#182c38">x</text>
<text x="66" y="73" text-anchor="start" font-size="19" fill="#182c38">y</text>
<text x="90" y="524" text-anchor="middle" font-size="16" fill="#182c38">0</text>
<text x="149" y="524" text-anchor="middle" font-size="16" fill="#182c38">1</text>
<text x="267" y="524" text-anchor="middle" font-size="16" fill="#182c38">3</text>
<text x="385" y="524" text-anchor="middle" font-size="16" fill="#182c38">5</text>
<text x="503" y="524" text-anchor="middle" font-size="16" fill="#182c38">7</text>
<text x="562" y="524" text-anchor="middle" font-size="16" fill="#182c38">8</text>
<text x="739" y="524" text-anchor="middle" font-size="16" fill="#182c38">11</text>
<text x="149" y="549" text-anchor="middle" font-size="21" fill="#182c38">u′</text>
<text x="503" y="549" text-anchor="middle" font-size="21" fill="#182c38">u″</text>
<text x="450" y="588" text-anchor="middle" font-size="19" fill="#182c38">A common lattice point in these rows would belong to both triangles.</text>
</g></svg>
