<svg xmlns="http://www.w3.org/2000/svg" width="1000" height="990" viewBox="0 0 1000 990" role="img" aria-labelledby="title desc">
<title id="title">Sea patterns and the finite graph corner</title>
<desc id="desc">Four orthogonal sea patterns with exact excitation energy and trace weights, followed by four levels of the A4 corner rooted at odd vertex 1.</desc>
<rect width="1000" height="990" rx="18" fill="#f6f7fb"/>
<style>text{font-family:Arial,sans-serif;fill:#17233b}.title{font-size:28px;font-weight:bold}.label{font-size:22px}.small{font-size:19px}.mono{font-family:Consolas,monospace;font-size:22px}</style>
<text x="36" y="49" class="title">One finite corner inside an infinite thermal factor</text>
<text x="36" y="86" class="small">Theorem 17.2 • modes outside the window continue the indicated sea pattern</text>
<rect x="25" y="108" width="950" height="365" rx="12" fill="white" stroke="#bcc8da"/>
<text x="44" y="146" class="label">Pattern</text>
<text x="706" y="146" class="label">Energy</text>
<text x="822" y="146" class="label">Trace / u₀</text>
<text x="187" y="178" text-anchor="middle" class="small">-3</text>
<text x="257" y="178" text-anchor="middle" class="small">-2</text>
<text x="327" y="178" text-anchor="middle" class="small">-1</text>
<text x="397" y="178" text-anchor="middle" class="small">0</text>
<text x="467" y="178" text-anchor="middle" class="small">1</text>
<text x="537" y="178" text-anchor="middle" class="small">2</text>
<text x="607" y="178" text-anchor="middle" class="small">3</text>
<text x="54" y="226" class="mono">p_-1</text>
<text x="139" y="226" class="label">⋯</text>
<circle cx="187" cy="219" r="12" fill="#345dcc" stroke="#345dcc" stroke-width="3"/>
<circle cx="257" cy="219" r="12" fill="#345dcc" stroke="#345dcc" stroke-width="3"/>
<circle cx="327" cy="219" r="12" fill="white" stroke="#345dcc" stroke-width="3"/>
<circle cx="397" cy="219" r="12" fill="white" stroke="#345dcc" stroke-width="3"/>
<circle cx="467" cy="219" r="12" fill="white" stroke="#345dcc" stroke-width="3"/>
<circle cx="537" cy="219" r="12" fill="white" stroke="#345dcc" stroke-width="3"/>
<circle cx="607" cy="219" r="12" fill="white" stroke="#345dcc" stroke-width="3"/>
<text x="657" y="226" class="label">⋯</text>
<text x="733" y="226" text-anchor="middle" class="mono">1</text>
<text x="871" y="226" text-anchor="middle" class="label">λ</text>
<text x="54" y="284" class="mono">p_0</text>
<text x="139" y="284" class="label">⋯</text>
<circle cx="187" cy="277" r="12" fill="#345dcc" stroke="#345dcc" stroke-width="3"/>
<circle cx="257" cy="277" r="12" fill="#345dcc" stroke="#345dcc" stroke-width="3"/>
<circle cx="327" cy="277" r="12" fill="#345dcc" stroke="#345dcc" stroke-width="3"/>
<circle cx="397" cy="277" r="12" fill="white" stroke="#345dcc" stroke-width="3"/>
<circle cx="467" cy="277" r="12" fill="white" stroke="#345dcc" stroke-width="3"/>
<circle cx="537" cy="277" r="12" fill="white" stroke="#345dcc" stroke-width="3"/>
<circle cx="607" cy="277" r="12" fill="white" stroke="#345dcc" stroke-width="3"/>
<text x="657" y="284" class="label">⋯</text>
<text x="733" y="284" text-anchor="middle" class="mono">0</text>
<text x="871" y="284" text-anchor="middle" class="label">1</text>
<text x="54" y="342" class="mono">p_1</text>
<text x="139" y="342" class="label">⋯</text>
<circle cx="187" cy="335" r="12" fill="#345dcc" stroke="#345dcc" stroke-width="3"/>
<circle cx="257" cy="335" r="12" fill="#345dcc" stroke="#345dcc" stroke-width="3"/>
<circle cx="327" cy="335" r="12" fill="#345dcc" stroke="#345dcc" stroke-width="3"/>
<circle cx="397" cy="335" r="12" fill="#345dcc" stroke="#345dcc" stroke-width="3"/>
<circle cx="467" cy="335" r="12" fill="white" stroke="#345dcc" stroke-width="3"/>
<circle cx="537" cy="335" r="12" fill="white" stroke="#345dcc" stroke-width="3"/>
<circle cx="607" cy="335" r="12" fill="white" stroke="#345dcc" stroke-width="3"/>
<text x="657" y="342" class="label">⋯</text>
<text x="733" y="342" text-anchor="middle" class="mono">0</text>
<text x="871" y="342" text-anchor="middle" class="label">λ⁻¹</text>
<text x="54" y="400" class="mono">p_2</text>
<text x="139" y="400" class="label">⋯</text>
<circle cx="187" cy="393" r="12" fill="#345dcc" stroke="#345dcc" stroke-width="3"/>
<circle cx="257" cy="393" r="12" fill="#345dcc" stroke="#345dcc" stroke-width="3"/>
<circle cx="327" cy="393" r="12" fill="#345dcc" stroke="#345dcc" stroke-width="3"/>
<circle cx="397" cy="393" r="12" fill="#345dcc" stroke="#345dcc" stroke-width="3"/>
<circle cx="467" cy="393" r="12" fill="#345dcc" stroke="#345dcc" stroke-width="3"/>
<circle cx="537" cy="393" r="12" fill="white" stroke="#345dcc" stroke-width="3"/>
<circle cx="607" cy="393" r="12" fill="white" stroke="#345dcc" stroke-width="3"/>
<text x="657" y="400" class="label">⋯</text>
<text x="733" y="400" text-anchor="middle" class="mono">1</text>
<text x="871" y="400" text-anchor="middle" class="label">λ⁻²</text>
<text x="44" y="455" class="small">Filled: fₙ = 1 • hollow: fₙ = 0 • distinct rows impose incompatible occupations</text>
<rect x="25" y="493" width="950" height="368" rx="12" fill="white" stroke="#bcc8da"/>
<text x="44" y="532" class="label">Sea corner q = p₀ for A₄, root r = 1</text>
<text x="44" y="570" class="small">Negative pieces: rank one, root fixed • nonnegative pieces: transfer B = [[1,1],[1,0]]</text>
<text x="71" y="613" class="label">L = m+1</text>
<text x="255" y="613" class="label">Endpoint 1</text>
<text x="443" y="613" class="label">Endpoint 3</text>
<text x="643" y="613" class="label">Normalized minimal traces</text>
<text x="119" y="653" text-anchor="middle" class="mono">1</text>
<text x="302" y="653" text-anchor="middle" class="mono">M_1</text>
<text x="490" y="653" text-anchor="middle" class="mono">M_1</text>
<text x="655" y="653" class="label">φ⁻1, φ⁻2</text>
<text x="119" y="701" text-anchor="middle" class="mono">2</text>
<text x="302" y="701" text-anchor="middle" class="mono">M_2</text>
<text x="490" y="701" text-anchor="middle" class="mono">M_1</text>
<text x="655" y="701" class="label">φ⁻2, φ⁻3</text>
<text x="119" y="749" text-anchor="middle" class="mono">3</text>
<text x="302" y="749" text-anchor="middle" class="mono">M_3</text>
<text x="490" y="749" text-anchor="middle" class="mono">M_2</text>
<text x="655" y="749" class="label">φ⁻3, φ⁻4</text>
<text x="119" y="797" text-anchor="middle" class="mono">4</text>
<text x="302" y="797" text-anchor="middle" class="mono">M_5</text>
<text x="490" y="797" text-anchor="middle" class="mono">M_3</text>
<text x="655" y="797" class="label">φ⁻4, φ⁻5</text>
<text x="44" y="847" class="small">Each block count × its minimal trace sums to 1 • φ = (1+√5)/2</text>
<text x="36" y="905" class="label">λ &gt; 1: unbounded corner matrix sizes ⇒ qMq is II₁</text>
<text x="36" y="943" class="label">Orthogonal pⱼ, j ≤ 0: trace sums diverge ⇒ M is II∞</text>
<text x="36" y="975" class="small">Exact locators: (17.5)–(17.7), (17.10) • original CC0 figure</text>
</svg>
